<svg width="20" height="20" viewBox="0 0 20 20" fill="none" xmlns="http://www.w3.org/2000/svg">
<g id="Character">
<path id="Vector" d="M0 8.32251C0.0395771 8.20271 0.0713431 8.07947 0.119252 7.96426C0.320262 7.48449 0.653023 7.17611 1.12691 7.07408C1.2623 7.04485 1.33104 6.99154 1.37791 6.83792C1.94607 4.95624 3.00996 3.30314 4.4342 2.08898C4.45451 2.07121 4.47482 2.05287 4.49617 2.03625C4.65708 1.91072 4.82581 1.92161 4.93048 2.06777C5.03515 2.21394 5.01328 2.39163 4.86174 2.53894C4.56439 2.82554 4.26392 3.11214 3.97021 3.40619C3.85148 3.52484 3.74785 3.66184 3.61454 3.81717C3.69942 3.82634 3.74837 3.83666 3.79732 3.83666C4.82581 3.83666 5.85377 3.83666 6.88226 3.83208C6.95725 3.83208 7.06713 3.78221 7.10202 3.71744C7.69113 2.63186 8.37912 1.61512 9.15534 0.682929C8.88038 0.729358 8.60386 0.766616 8.33099 0.824509C7.5646 0.989096 6.82307 1.27159 6.12821 1.66367C6.11675 1.67055 6.10582 1.678 6.09384 1.6843C5.88554 1.79035 5.71942 1.74678 5.64131 1.56623C5.56319 1.38567 5.62672 1.21142 5.82409 1.11455C6.25059 0.90361 6.67239 0.673184 7.11555 0.514982C11.8445 -1.17824 16.7646 1.42293 18.5216 6.54273C18.6257 6.84881 18.7257 7.05287 19.0621 7.14344C19.6141 7.29132 19.9875 7.90292 19.9932 8.53344C20.0023 9.5075 20.0023 10.4819 19.9932 11.4567C19.9883 11.8069 19.8733 12.1443 19.6677 12.4116C19.4621 12.6788 19.1787 12.8593 18.8658 12.9224C18.7273 12.9511 18.6637 13.0124 18.6179 13.1637C18.0998 14.8946 17.1566 16.4339 15.8928 17.6112C15.8637 17.6393 15.8345 17.6685 15.8033 17.6937C15.6548 17.817 15.4908 17.8084 15.3835 17.6759C15.2763 17.5435 15.2856 17.3509 15.4283 17.2013C15.6965 16.9199 15.9663 16.6402 16.2339 16.3582C16.2797 16.31 16.3172 16.2533 16.3787 16.1747C16.2943 16.1684 16.2391 16.1598 16.1834 16.1598C15.1617 16.1598 14.14 16.1564 13.1183 16.165C13.0735 16.1672 13.0297 16.1799 12.9898 16.2024C12.9499 16.2248 12.9149 16.2564 12.887 16.2951C12.309 17.3469 11.6544 18.3328 10.8728 19.2138C10.8571 19.2335 10.8425 19.2541 10.829 19.2757L10.8504 19.3417C11.3357 19.2299 11.8252 19.1376 12.3048 19.0023C12.9653 18.8086 13.5995 18.5195 14.191 18.1425C14.2525 18.1041 14.3264 18.0359 14.3816 18.0491C14.4915 18.0743 14.642 18.1185 14.6842 18.2084C14.7263 18.2984 14.6753 18.4543 14.6451 18.5753C14.6347 18.6177 14.5675 18.6469 14.5227 18.675C13.0013 19.6355 11.2597 20.0904 9.50841 19.9848C5.73035 19.7813 2.51055 16.9669 1.3602 13.1202C1.3469 13.0808 1.32606 13.0451 1.29911 13.0155C1.27215 12.9858 1.23971 12.9629 1.20398 12.9482C0.571265 12.8055 0.179139 12.3956 0.0260376 11.7061C0.0234338 11.6935 0.0104151 11.6843 0.00208306 11.6734L0 8.32251ZM9.99531 12.3188H18.507C19.0736 12.3188 19.41 11.9514 19.4105 11.3347C19.4105 10.4393 19.4105 9.54399 19.4105 8.64866C19.4105 8.05597 19.0715 7.67995 18.533 7.67995C12.8454 7.67995 7.15774 7.67995 1.47008 7.67995C0.919648 7.67995 0.584804 8.05368 0.584804 8.66299C0.584804 9.52278 0.584804 10.3826 0.584804 11.2424C0.584804 11.9824 0.889965 12.3194 1.56017 12.3194L9.99531 12.3188ZM13.6005 7.02651C13.5993 6.98889 13.594 6.95157 13.5849 6.91531C13.2797 6.14264 12.9761 5.36767 12.661 4.60073C12.6366 4.54341 12.5314 4.4861 12.4637 4.4861C10.8238 4.47979 9.18294 4.48266 7.54465 4.47807C7.42228 4.47807 7.35302 4.52106 7.30563 4.64143C7.01765 5.3757 6.72603 6.10824 6.43702 6.84251C6.41805 6.90222 6.40291 6.96332 6.39171 7.02536L13.6005 7.02651ZM13.6645 12.9797H6.38806C6.40009 13.0335 6.41469 13.0865 6.43181 13.1385C6.7177 13.8659 7.00776 14.5921 7.28897 15.3212C7.34937 15.4777 7.43634 15.5213 7.58736 15.5207C9.16159 15.5144 10.7363 15.511 12.3111 15.5207C12.5361 15.5207 12.6642 15.4577 12.7548 15.2261C13.0438 14.4878 13.349 13.7558 13.6645 12.9797ZM13.2901 15.5018C13.3453 15.5081 13.3708 15.5138 13.3943 15.5138C14.5071 15.5138 15.62 15.5167 16.7323 15.5087C16.7746 15.5057 16.8159 15.4926 16.8531 15.4702C16.8904 15.4478 16.9227 15.4168 16.9479 15.3791C17.2572 14.7842 17.5578 14.184 17.8498 13.5787C17.9389 13.393 17.9889 13.1849 18.0581 12.9849C18.038 12.9762 18.0173 12.9695 17.9961 12.9648C16.7791 12.9648 15.5627 12.9648 14.3457 12.9591C14.2243 12.9591 14.2144 13.0422 14.1853 13.127C14.0244 13.5954 13.8728 14.0665 13.6989 14.5291C13.5786 14.8535 13.4338 15.1642 13.2901 15.5018ZM6.70781 4.50444C6.67801 4.49474 6.64753 4.48784 6.61667 4.4838C5.49133 4.4838 4.36598 4.48036 3.24064 4.48839C3.20132 4.49417 3.16362 4.50932 3.13016 4.53278C3.0967 4.55624 3.0683 4.58745 3.04692 4.62424C2.73916 5.21979 2.43452 5.81821 2.14446 6.4235C2.05593 6.6075 2.00646 6.81385 1.93616 7.01332C1.95804 7.02152 1.98051 7.02766 2.00333 7.03166C3.21356 7.03166 4.42327 7.03166 5.63297 7.03797C5.76108 7.03797 5.7767 6.95944 5.81107 6.86601C6.05201 6.20339 6.29502 5.54135 6.54012 4.87988C6.58907 4.75492 6.64896 4.63742 6.70781 4.50444ZM13.2901 4.48208C13.3115 4.54915 13.3193 4.57609 13.3286 4.60188C13.6177 5.3671 13.9119 6.12945 14.1905 6.89868C14.2426 7.03682 14.3123 7.0351 14.4118 7.0351C15.5634 7.0351 16.7147 7.0351 17.866 7.0351C17.9227 7.0351 17.9795 7.02995 18.0539 7.02593C18.031 6.94339 18.0154 6.87576 17.9941 6.80984C17.7373 6.04406 17.394 5.31689 16.9723 4.64544C16.9435 4.5912 16.9014 4.54692 16.8509 4.51764C16.8004 4.48837 16.7434 4.47525 16.6865 4.47979C15.6194 4.48552 14.5514 4.48323 13.4859 4.48323L13.2901 4.48208ZM6.70468 15.5047C6.68646 15.4474 6.67864 15.4216 6.66875 15.3958C6.38025 14.6311 6.08551 13.8688 5.8069 13.0995C5.75483 12.9602 5.68505 12.9631 5.58559 12.9631C4.43403 12.9631 3.28265 12.9631 2.13144 12.9631C2.0752 12.9631 2.01843 12.9688 1.95386 12.9717C1.95536 13.0037 1.95937 13.0356 1.96584 13.0669C2.22686 13.8998 2.5976 14.686 3.06619 15.4004C3.09537 15.4344 3.13044 15.4617 3.16934 15.4806C3.20825 15.4995 3.2502 15.5096 3.29271 15.5104C4.37223 15.5173 5.45227 15.515 6.53179 15.5144C6.5823 15.5156 6.63334 15.5093 6.70468 15.5047ZM16.3907 3.82577C14.8675 1.99154 13.0396 0.944307 10.7973 0.678343C10.8431 0.741968 10.8603 0.771201 10.8811 0.792983C11.6496 1.6683 12.3183 2.64343 12.8725 3.6968C12.937 3.81832 13.0152 3.83724 13.1266 3.83666C14.1405 3.8338 15.1549 3.83666 16.1688 3.83666C16.2272 3.83666 16.2834 3.8315 16.3907 3.82577ZM3.66453 16.161L3.64214 16.2149C5.12368 18.0084 6.9536 19.051 9.1944 19.3199C9.17367 19.2846 9.15106 19.2507 9.1267 19.2184C8.34036 18.3328 7.68109 17.3412 7.10254 16.2814C7.06712 16.2166 6.95829 16.1667 6.88278 16.1667C6.26465 16.1575 5.64651 16.1616 5.02786 16.1616L3.66453 16.161ZM10.0078 0.756871C9.34489 1.32606 7.88679 3.33225 7.77379 3.82462H12.2621C11.6268 2.67651 10.8957 1.65622 10.0078 0.756871ZM12.2606 16.1799H7.73629C8.37525 17.3263 9.10483 18.3506 9.99792 19.2488C10.8915 18.3523 11.6195 17.3269 12.2606 16.1799Z" fill="#FF296D"/>
<path id="Vector_2" d="M9.99377 9.73945C9.81776 10.2685 9.65632 10.7425 9.50322 11.2194C9.44698 11.3914 9.37512 11.5422 9.18608 11.5404C9.00747 11.5404 8.93456 11.3966 8.8804 11.2309C8.63357 10.4777 8.38256 9.72684 8.13573 8.97366C8.10715 8.90139 8.09311 8.82318 8.09459 8.74438C8.09764 8.67129 8.12473 8.60191 8.17081 8.54918C8.2169 8.49645 8.27883 8.46396 8.34507 8.45778C8.50129 8.43485 8.60909 8.52427 8.66221 8.6819C8.81166 9.12384 8.95591 9.56806 9.10276 10.0111C9.12672 10.0834 9.15484 10.1544 9.19337 10.2639C9.36626 9.74232 9.52822 9.26198 9.68444 8.77935C9.73964 8.60739 9.80994 8.45434 9.9995 8.45549C10.1891 8.45664 10.2599 8.61025 10.3119 8.78221C10.4682 9.2637 10.6296 9.74346 10.8041 10.2725C10.9733 9.76582 11.1269 9.30439 11.2805 8.84297C11.3003 8.78278 11.316 8.71973 11.341 8.66184C11.4154 8.48988 11.5612 8.41651 11.7086 8.4767C11.7459 8.49004 11.7802 8.51176 11.8094 8.54048C11.8386 8.5692 11.8621 8.60428 11.8784 8.64352C11.8946 8.68275 11.9033 8.72527 11.9038 8.76839C11.9044 8.81151 11.8968 8.85427 11.8815 8.89398C11.6935 9.48037 11.4987 10.0639 11.3061 10.6485C11.2373 10.8566 11.1634 11.063 11.0978 11.2728C11.0488 11.431 10.9618 11.5381 10.8056 11.5404C10.6494 11.5427 10.5603 11.4332 10.5093 11.2779C10.3573 10.8144 10.2042 10.3511 10.05 9.88791C10.0417 9.85581 10.0281 9.82715 9.99377 9.73945Z" fill="#FF296D"/>
<path id="Vector_3" d="M4.84811 10.264C5.02568 9.73145 5.18712 9.25742 5.34022 8.78052C5.39594 8.60856 5.46624 8.45666 5.65579 8.45781C5.84535 8.45896 5.91617 8.61601 5.96825 8.78511C6.12447 9.26888 6.28642 9.75094 6.45879 10.2754C6.63116 9.75954 6.78895 9.28207 6.94726 8.80689C6.96383 8.74527 6.98581 8.68556 7.01287 8.62862C7.09255 8.48475 7.20868 8.41597 7.35969 8.47787C7.51071 8.53978 7.58674 8.67276 7.54508 8.85102C7.50438 9.00913 7.45641 9.16485 7.40135 9.31761C7.19305 9.95557 6.9759 10.5924 6.76812 11.2315C6.71605 11.3995 6.64106 11.5387 6.46348 11.541C6.2859 11.5433 6.20779 11.4092 6.15103 11.2395C6.01615 10.8148 5.87295 10.3929 5.73443 9.97048C5.71256 9.90456 5.68652 9.84093 5.64746 9.73719C5.47509 10.2559 5.31314 10.734 5.15796 11.2149C5.10223 11.3868 5.03245 11.5399 4.8455 11.541C4.65855 11.5422 4.58513 11.3874 4.53045 11.216C4.2909 10.4829 4.04719 9.75152 3.80504 9.01954C3.7915 8.97942 3.77744 8.9393 3.76651 8.89803C3.71443 8.70371 3.78265 8.54264 3.93992 8.47787C4.09718 8.4131 4.24716 8.48819 4.31434 8.68136C4.46744 9.12157 4.61064 9.56637 4.75802 10.0095C4.77781 10.0742 4.80384 10.1384 4.84811 10.264Z" fill="#FF296D"/>
<path id="Vector_4" d="M15.1523 10.2673C15.321 9.7612 15.4695 9.31468 15.6184 8.86816C15.6408 8.80109 15.6601 8.73231 15.6871 8.66754C15.7611 8.49157 15.9038 8.41705 16.0517 8.47437C16.0892 8.48718 16.124 8.50842 16.1538 8.53675C16.1835 8.56508 16.2076 8.5999 16.2246 8.63899C16.2415 8.67809 16.2509 8.72063 16.2521 8.76392C16.2534 8.8072 16.2465 8.85031 16.2318 8.89051C16.1188 9.25564 15.9939 9.61675 15.8741 9.97959C15.7366 10.3963 15.5981 10.8124 15.4632 11.2297C15.4111 11.3948 15.3367 11.5381 15.158 11.541C14.969 11.5438 14.8977 11.3948 14.8399 11.2211C14.6836 10.7379 14.5212 10.2576 14.3472 9.73082C14.2853 9.90851 14.2358 10.0455 14.191 10.1842C14.0681 10.5539 13.9473 10.9236 13.8265 11.2934C13.7781 11.4412 13.688 11.5393 13.5406 11.5404C13.3932 11.5416 13.3005 11.4447 13.2516 11.2968C12.9912 10.5046 12.7256 9.71248 12.4673 8.9186C12.4001 8.71282 12.4673 8.54545 12.6324 8.47724C12.7975 8.40902 12.9449 8.49214 13.0141 8.69964C13.1875 9.20749 13.3542 9.71821 13.5385 10.2713C13.6947 9.79903 13.84 9.36627 13.9838 8.9335C14.0108 8.85268 14.0192 8.75466 14.0676 8.69562C14.1436 8.60162 14.2368 8.49214 14.3394 8.46634C14.4785 8.42966 14.5805 8.54487 14.63 8.69562C14.7689 9.11177 14.9065 9.5281 15.043 9.94462C15.069 10.0295 15.0997 10.1137 15.1523 10.2673Z" fill="#FF296D"/>
</g>
</svg>
