<svg width="20" height="20" viewBox="0 0 20 20" fill="none" xmlns="http://www.w3.org/2000/svg">
<g id="Character">
<path id="Vector" d="M1.48448 19.9998C1.21689 19.8899 0.922431 19.8206 0.687062 19.6624C0.21193 19.3425 0.0034182 18.8557 0.0034182 18.2883C0.00113939 13.9983 0 9.70825 0 5.41821C0 5.15796 0.133799 4.99878 0.338404 5.00269C0.543009 5.00659 0.664599 5.16431 0.664599 5.448C0.664599 9.67326 0.664599 13.8984 0.664599 18.1233C0.664599 18.1946 0.664599 18.2664 0.664599 18.3381C0.689504 18.9055 1.09578 19.3093 1.66467 19.3333C1.72327 19.3357 1.78187 19.3333 1.84047 19.3333H9.66331C9.66331 19.0837 9.66965 18.845 9.65696 18.6091C9.65696 18.5686 9.5759 18.5168 9.52267 18.4968C8.70132 18.1833 7.85556 17.9963 6.9717 18.0027C5.25242 18.0082 3.53985 18.2174 1.86977 18.6257C1.49474 18.7185 1.33262 18.5886 1.33262 18.1965C1.33262 13.3987 1.33262 8.60067 1.33262 3.80249C1.33262 3.47534 1.39805 3.39282 1.71204 3.31421C3.44263 2.87085 5.20595 2.67944 6.98586 2.67065C8.03721 2.66577 9.04949 2.89282 10.0198 3.30542C10.2639 3.4104 10.3377 3.57153 10.3377 3.82056C10.3338 7.67472 10.3328 11.5287 10.3347 15.3826V16.4158C10.4275 16.3669 10.4939 16.3328 10.5584 16.2971C12.2675 15.3528 14.0093 14.4797 15.8517 13.8215C15.9709 13.7791 16.0056 13.7166 16.0056 13.594C16.002 9.39478 16.001 5.19556 16.0026 0.996338C16.0026 0.951416 15.9973 0.906494 15.9934 0.835205C15.9167 0.863037 15.8517 0.884033 15.7888 0.9104C14.2613 1.54517 12.8022 2.31763 11.3802 3.16089C11.3034 3.20975 11.2237 3.25378 11.1414 3.29272C11.0678 3.3297 10.9828 3.33716 10.9038 3.31356C10.8249 3.28996 10.7579 3.2371 10.7166 3.16577C10.6723 3.09558 10.6577 3.01067 10.6761 2.92973C10.6944 2.84879 10.7441 2.77843 10.8143 2.73413C11.0013 2.60522 11.2005 2.49292 11.3973 2.37915C12.9111 1.50024 14.4654 0.700439 16.1013 0.0686035C16.1402 0.0489728 16.1773 0.0259335 16.2121 -0.000244141H16.4465C16.6243 0.111084 16.6736 0.27417 16.6736 0.47876C16.6703 4.9384 16.6694 9.39803 16.6707 13.8577C16.6707 14.1726 16.6218 14.2537 16.3366 14.3533C14.2242 15.095 12.2387 16.1052 10.2991 17.2122C10.2169 17.2639 10.1271 17.3024 10.033 17.3264C9.9548 17.3386 9.87496 17.3199 9.81028 17.2744C9.7456 17.2288 9.70114 17.16 9.68626 17.0823C9.66986 16.9855 9.66332 16.8874 9.66672 16.7893C9.66672 12.5706 9.66819 8.35181 9.67112 4.13306C9.67112 3.93774 9.6135 3.85181 9.43038 3.78735C8.54076 3.46785 7.59978 3.31539 6.65478 3.33765C5.16471 3.37599 3.68145 3.55319 2.22428 3.86694C2.04361 3.90552 1.99185 3.97192 1.99185 4.15991C1.99803 8.65861 1.99966 13.1573 1.99673 17.656V17.9001C2.23356 17.8513 2.45282 17.8084 2.67207 17.7654C4.24836 17.4583 5.83881 17.2903 7.44537 17.3538C8.27014 17.3865 9.06414 17.5955 9.82982 17.9026C9.88781 17.9288 9.95041 17.9433 10.014 17.9452C10.0776 17.9471 10.141 17.9365 10.2005 17.9138C11.5824 17.4255 13.0034 17.2659 14.4659 17.366C15.6546 17.4412 16.835 17.616 17.9945 17.8884C17.9979 17.8113 18.0042 17.7419 18.0042 17.6765C18.0042 13.171 18.0057 8.66577 18.0086 4.16089C18.0086 3.9812 17.9627 3.89917 17.7777 3.89478C17.6866 3.88884 17.5974 3.86634 17.5145 3.82837C17.3567 3.76343 17.283 3.63306 17.3191 3.46851C17.3553 3.30395 17.4656 3.18774 17.6361 3.20923C17.9134 3.2396 18.1874 3.29467 18.455 3.37378C18.5453 3.4021 18.6088 3.54663 18.6635 3.64966C18.6908 3.69849 18.6718 3.7771 18.6718 3.84497V18.157C18.6718 18.2029 18.6742 18.2483 18.6718 18.2937C18.6527 18.571 18.4813 18.7004 18.2089 18.6394C17.7205 18.5291 17.2371 18.3982 16.7439 18.3069C15.5024 18.0694 14.2383 17.9712 12.9751 18.0139C12.1054 18.0466 11.266 18.2581 10.4422 18.5344C10.416 18.5472 10.3932 18.566 10.3757 18.5893C10.3581 18.6125 10.3463 18.6395 10.3411 18.6682C10.3303 18.8811 10.3362 19.0955 10.3362 19.3328H18.1981C18.9306 19.3328 19.3349 18.9299 19.3349 18.198C19.3349 13.9792 19.3349 9.7605 19.3349 5.54175C19.3349 5.48315 19.3349 5.42456 19.3349 5.36597C19.3349 5.1897 19.414 5.06372 19.5874 5.01538C19.7466 4.97144 19.8647 5.04175 19.9541 5.17163C19.9687 5.19263 19.9849 5.21216 20 5.23267V18.5154C19.8872 18.7874 19.8091 19.0813 19.6533 19.3264C19.3955 19.7307 18.975 19.9099 18.5155 19.9998H1.48448Z" fill="#FF296D"/>
<path id="Vector_2" d="M6.17829 11.9724C6.6666 12.0212 7.28676 12.0862 7.90595 12.1511C7.95762 12.1582 8.00859 12.1696 8.05831 12.1853C8.25656 12.2434 8.35764 12.3962 8.32102 12.5793C8.28586 12.7546 8.11935 12.8586 7.91962 12.8337C7.53336 12.7849 7.14808 12.7195 6.75987 12.6936C5.8057 12.6301 4.86471 12.7449 3.933 12.947C3.87587 12.9597 3.81874 12.9734 3.76112 12.9841C3.55944 13.0217 3.39634 12.9285 3.35191 12.7512C3.339 12.7086 3.33519 12.6638 3.34072 12.6197C3.34626 12.5755 3.36102 12.533 3.38404 12.4949C3.40707 12.4569 3.43784 12.4241 3.47437 12.3986C3.51089 12.3732 3.55236 12.3558 3.59606 12.3474C3.89761 12.2675 4.20325 12.2039 4.51166 12.157C5.01756 12.0872 5.5298 12.0427 6.17829 11.9724Z" fill="#FF296D"/>
<path id="Vector_3" d="M6.32855 13.9622C6.90135 14.0349 7.47512 14.0999 8.04645 14.1843C8.09225 14.1896 8.13637 14.2047 8.17581 14.2286C8.21524 14.2525 8.24906 14.2846 8.27496 14.3228C8.30087 14.3609 8.31825 14.4042 8.32592 14.4496C8.33359 14.4951 8.33138 14.5417 8.31942 14.5862C8.30886 14.6289 8.28995 14.6692 8.2638 14.7046C8.23764 14.74 8.20474 14.7699 8.16699 14.7926C8.12924 14.8153 8.08739 14.8303 8.04383 14.8368C8.00026 14.8433 7.95585 14.8411 7.91314 14.8303C6.5273 14.5457 5.15757 14.6731 3.79272 14.9768C3.53782 15.0334 3.33663 14.8958 3.34152 14.6648C3.34542 14.4631 3.4719 14.3718 3.65648 14.3259C4.46564 14.1284 5.29452 14.0229 6.12737 14.0115H6.32269L6.32855 13.9622Z" fill="#FF296D"/>
<path id="Vector_4" d="M8.03023 6.83668C7.68841 6.78786 7.39542 6.73903 7.10682 6.71315C6.00176 6.60914 4.9133 6.72731 3.8351 6.96657C3.74145 6.98975 3.64356 6.98975 3.54992 6.96657C3.40342 6.92311 3.33506 6.80006 3.3419 6.6487C3.35069 6.46608 3.46739 6.36549 3.63489 6.3318C4.02945 6.25319 4.42401 6.16774 4.82247 6.11256C5.88505 5.96608 6.94812 5.94948 8.00484 6.17067C8.2319 6.2195 8.34177 6.34938 8.3242 6.54225C8.32086 6.61918 8.28883 6.69208 8.23442 6.74657C8.18001 6.80107 8.10716 6.83322 8.03023 6.83668Z" fill="#FF296D"/>
<path id="Vector_5" d="M6.23732 9.96106C6.81109 10.0275 7.38536 10.088 7.95717 10.1656C8.06412 10.1803 8.20133 10.2379 8.25358 10.3209C8.30583 10.4039 8.31218 10.5573 8.27995 10.6627C8.23503 10.8092 8.09195 10.8497 7.94301 10.8317C7.58215 10.7882 7.22275 10.7301 6.8609 10.6998C5.86034 10.6158 4.87589 10.7448 3.89975 10.9567C3.57062 11.028 3.39483 10.962 3.34893 10.7369C3.30303 10.5118 3.42706 10.3839 3.7596 10.3058C4.57314 10.1129 5.39839 10.0226 6.23732 9.96106Z" fill="#FF296D"/>
<path id="Vector_6" d="M7.9625 8.82069C7.63386 8.78162 7.3062 8.73426 6.97659 8.70447C5.93012 8.61072 4.90026 8.7367 3.87919 8.95936C3.82258 8.97389 3.76496 8.98418 3.70682 8.99012C3.51735 9.00233 3.3816 8.90272 3.34839 8.73377C3.31519 8.56483 3.39136 8.40613 3.57399 8.35584C3.83129 8.28526 4.09208 8.22806 4.3553 8.18446C5.56242 7.97889 6.77149 7.92078 7.98105 8.16541C8.21789 8.21424 8.3302 8.3285 8.32678 8.51795C8.32043 8.71668 8.17882 8.83973 7.9625 8.82069Z" fill="#FF296D"/>
<path id="Vector_7" d="M14.6247 11.6742C14.8297 11.6766 14.9377 11.7611 14.9831 11.9135C15.0285 12.0658 14.9728 12.182 14.8493 12.2704C14.811 12.2952 14.7705 12.3163 14.7282 12.3334C13.8028 12.744 12.8755 13.1522 11.9516 13.5663C11.6586 13.6967 11.4696 13.6771 11.3749 13.4852C11.2738 13.2806 11.3666 13.1005 11.6645 12.9657C12.5815 12.5516 13.5004 12.1412 14.421 11.7343C14.4871 11.7087 14.5552 11.6886 14.6247 11.6742Z" fill="#FF296D"/>
<path id="Vector_8" d="M11.3182 7.285C11.3788 7.2142 11.4398 7.0809 11.5414 7.03451C12.5268 6.58302 13.5165 6.1408 14.5104 5.70785C14.7233 5.61459 14.9054 5.70444 14.9757 5.89096C15.046 6.07748 14.9503 6.23569 14.7316 6.33041C13.7875 6.74806 12.8442 7.16749 11.9018 7.58871C11.6176 7.71567 11.4169 7.65561 11.351 7.4144C11.3456 7.38949 11.3392 7.36459 11.3182 7.285Z" fill="#FF296D"/>
<path id="Vector_9" d="M14.6378 9.67432C14.8278 9.68018 14.9308 9.7583 14.9797 9.90234C15.0285 10.0464 14.9767 10.1714 14.8595 10.2646C14.8166 10.2938 14.7701 10.3176 14.7214 10.3354C13.8082 10.7433 12.8947 11.1489 11.9809 11.5522C11.9049 11.588 11.8266 11.6187 11.7465 11.644C11.675 11.67 11.5961 11.6671 11.5266 11.6359C11.4572 11.6047 11.4026 11.5478 11.3744 11.4771C11.2968 11.3154 11.3412 11.1733 11.4828 11.0635C11.5086 11.0441 11.5364 11.0277 11.5658 11.0146C12.5132 10.5889 13.461 10.1642 14.4093 9.74072C14.4835 9.71208 14.5599 9.68986 14.6378 9.67432Z" fill="#FF296D"/>
<path id="Vector_10" d="M14.9996 4.06959C14.9508 4.12183 14.8834 4.25416 14.7764 4.30299C13.8032 4.74976 12.8232 5.18189 11.8441 5.61695C11.6414 5.7068 11.4534 5.64723 11.3743 5.48267C11.2869 5.30494 11.3519 5.1106 11.5618 5.01588C12.5316 4.57642 13.5029 4.14137 14.4791 3.71656C14.7471 3.59986 14.9913 3.74439 14.9996 4.06959Z" fill="#FF296D"/>
<path id="Vector_11" d="M11.6219 9.6907C11.5413 9.61893 11.4099 9.55545 11.3816 9.4617C11.3503 9.35672 11.4041 9.22146 11.4392 9.10525C11.4509 9.06619 11.5169 9.03787 11.5633 9.01687C12.5038 8.5937 13.4451 8.17052 14.3872 7.74734C14.4588 7.71651 14.5339 7.69453 14.6108 7.68191C14.7901 7.65115 14.9136 7.73074 14.979 7.89627C15.0386 8.04764 14.9727 8.20438 14.8184 8.2908C14.7896 8.30579 14.7601 8.31931 14.73 8.33133C13.7973 8.74474 12.8653 9.15831 11.9339 9.57205C11.846 9.61111 11.7537 9.64041 11.6219 9.6907Z" fill="#FF296D"/>
</g>
</svg>
