<svg width="20" height="20" viewBox="0 0 20 20" fill="none" xmlns="http://www.w3.org/2000/svg">
<g id="Character">
<path id="Vector" d="M10.0019 19.999H5.69665C4.75637 19.9956 3.85557 19.6207 3.19057 18.9561C2.52557 18.2915 2.1503 17.3911 2.14654 16.451C2.14654 15.0232 2.14654 13.5955 2.14654 12.1677C2.14067 12.0179 2.18259 11.8701 2.26623 11.7456C2.34987 11.6211 2.47091 11.5264 2.61187 11.4752C2.88798 11.3729 3.20693 11.43 3.37712 11.671C3.4905 11.8325 3.55571 12.0229 3.56515 12.2201C3.58063 13.6175 3.57349 15.0161 3.57349 16.4123C3.57349 17.6307 4.51963 18.5701 5.73831 18.5689C8.57871 18.5689 11.4191 18.5689 14.2595 18.5689C15.4794 18.5689 16.4261 17.6319 16.4267 16.4147C16.4267 15.002 16.4267 13.5895 16.4267 12.1772C16.4267 11.7786 16.688 11.4776 17.0551 11.4336C17.2271 11.414 17.4003 11.4574 17.5426 11.5559C17.6849 11.6544 17.7865 11.8012 17.8287 11.969C17.8481 12.0558 17.8565 12.1448 17.8537 12.2337C17.8537 13.6532 17.8537 15.073 17.8537 16.4933C17.8495 18.3785 16.2637 19.9752 14.3726 19.9961C13.6442 20.0044 12.9153 19.9961 12.1863 19.9961H10.0019V19.999Z" fill="#FF296D"/>
<path id="Vector_2" d="M9.95314 1.70834C9.90954 1.78596 9.85895 1.85944 9.802 1.92786C6.97547 4.75842 4.14855 7.58957 1.32124 10.4213C1.10761 10.6349 0.877323 10.7741 0.567893 10.7075C0.444778 10.6817 0.330649 10.6239 0.237052 10.5399C0.143456 10.4559 0.0737133 10.3487 0.034882 10.2291C-0.00394931 10.1095 -0.0104918 9.98175 0.0159165 9.85881C0.0423247 9.73586 0.100747 9.62207 0.185271 9.52895C0.229306 9.47898 0.2781 9.43317 0.325705 9.38558L9.3807 0.333518C9.82461 -0.110875 10.1781 -0.11147 10.622 0.333518C13.6453 3.35643 16.6692 6.37894 19.6936 9.40105C19.862 9.56881 20.0013 9.74372 19.9995 9.99595C20.0048 10.1349 19.9678 10.2721 19.8935 10.3896C19.8191 10.5071 19.7108 10.5993 19.583 10.6539C19.3182 10.78 19.0605 10.7414 18.8302 10.5581C18.7624 10.5003 18.6982 10.4383 18.638 10.3725C15.8258 7.55863 13.0143 4.74434 10.2037 1.92965C10.1461 1.86152 10.0943 1.78869 10.0489 1.71191L9.95314 1.70834Z" fill="#FF296D"/>
</g>
</svg>
