<svg width="56" height="34" viewBox="0 0 56 34" fill="none" xmlns="http://www.w3.org/2000/svg">
<path d="M56 17C56 26.3972 48.261 33.9999 38.6953 33.9999C34.6575 33.9999 30.9563 32.6305 28.0241 30.3638C32.0618 27.2472 34.6095 22.4305 34.6095 17C34.6095 11.5694 32.0138 6.75277 28.0241 3.63611C30.9563 1.36945 34.6575 0 38.6953 0C48.261 0 56 7.64999 56 17Z" fill="#F79E1B"/>
<path d="M28.0241 3.63611C28.0241 3.63611 28.0241 3.63611 28.0241 3.63611C32.0138 6.75277 34.6095 11.5694 34.6095 17C34.6095 22.4305 32.0618 27.2472 28.0241 30.3638L27.9758 30.3638C23.9862 27.2944 21.3905 22.4305 21.3905 17.0001C21.3905 11.5695 23.9862 6.75287 27.9759 3.63621C27.9759 3.63617 27.976 3.63624 27.9759 3.63621L28.0241 3.63611Z" fill="#FF5F00"/>
<path d="M21.3905 17.0001C21.3905 11.5695 23.9862 6.75287 27.9759 3.63621C25.0438 1.36954 21.3425 7.34513e-05 17.3047 7.34513e-05C7.73905 7.34513e-05 0 7.60283 0 17C0 26.3972 7.73905 34 17.3047 34C21.3425 34 25.0436 32.6305 27.9758 30.3638C23.9862 27.2944 21.3905 22.4305 21.3905 17.0001Z" fill="#EB001B"/>
</svg>
