<svg width="20" height="20" viewBox="0 0 20 20" fill="none" xmlns="http://www.w3.org/2000/svg">
<g id="Character">
<path id="Vector" d="M4.01109 17.3331V18.667H4.26201C6.15611 18.667 8.0504 18.667 9.94487 18.667C10.4634 18.667 10.7981 19.1288 10.6155 19.5824C10.5105 19.8425 10.2685 19.9992 9.95486 19.9998C9.01854 19.9998 8.08185 19.9998 7.14479 19.9998H3.43986C2.9297 19.9998 2.67045 19.7408 2.6699 19.2328C2.6699 18.6086 2.6699 17.9845 2.6699 17.3514C2.41232 17.3325 2.16362 17.3303 1.92047 17.2959C0.851846 17.1347 0.0219276 16.2021 0.010825 15.1211C-0.00360834 13.7042 -0.00360834 12.2871 0.010825 10.8699C0.0202622 9.81943 0.779124 8.91905 1.805 8.7023C1.86607 8.68951 1.92658 8.67451 2.00818 8.65561C1.89049 5.94004 2.78536 3.63631 4.87709 1.8628C6.4148 0.558367 8.22008 -0.0596671 10.2341 0.00424823C12.5101 0.0765004 14.4298 0.972427 15.9519 2.66702C17.4741 4.36161 18.0981 6.39078 17.9859 8.63949C18.208 8.70786 18.4128 8.75065 18.5999 8.83402C19.4776 9.23307 19.9644 9.92336 19.9827 10.886C20.0099 12.2816 19.9999 13.6782 19.9872 15.0744C19.9842 15.6723 19.7458 16.2449 19.3235 16.6677C18.9013 17.0906 18.3294 17.3295 17.7322 17.3325C16.7191 17.3453 15.706 17.3375 14.6929 17.3325C14.2793 17.3325 13.9973 17.0519 13.9968 16.6395C13.9945 14.2151 13.9945 11.791 13.9968 9.36702C13.9968 8.93962 14.2743 8.66617 14.7034 8.66395C15.3474 8.66395 15.9913 8.66395 16.6542 8.66395C16.7724 6.12345 15.9275 4.01424 13.8297 2.56031C11.5192 0.959088 9.04112 0.851822 6.61798 2.27297C4.22481 3.67633 3.23169 5.89336 3.33827 8.65394C3.41654 8.65728 3.48372 8.66339 3.55033 8.66339C4.12656 8.66339 4.70222 8.66339 5.27789 8.66339C5.722 8.66339 5.99956 8.93628 5.99956 9.37202C6.00178 11.7893 6.00178 14.2066 5.99956 16.6239C5.99956 17.053 5.722 17.3286 5.29732 17.3325C4.87265 17.3364 4.45297 17.3331 4.01109 17.3331ZM4.65115 15.9948V9.99839C3.83622 9.99839 3.04128 9.98894 2.24078 10.0017C2.00463 10.0068 1.77952 10.1028 1.61224 10.2698C1.44496 10.4367 1.34838 10.6618 1.34258 10.8982C1.33222 12.2943 1.33222 13.6907 1.34258 15.0872C1.34258 15.5574 1.72173 15.9764 2.18971 15.9875C3.0063 16.012 3.82401 15.9948 4.65115 15.9948ZM15.3407 9.99839V15.9948C16.1734 15.9948 16.9895 16.0125 17.8066 15.9875C18.2746 15.9736 18.651 15.5585 18.6537 15.0872C18.6626 13.691 18.6626 12.2947 18.6537 10.8982C18.6482 10.6618 18.5518 10.4366 18.3846 10.2696C18.2174 10.1026 17.9922 10.0067 17.7561 10.0017C16.9567 9.98894 16.159 9.99839 15.3407 9.99839Z" fill="#FF296D"/>
</g>
</svg>
