<svg width="216" height="162" viewBox="0 0 216 162" fill="none" xmlns="http://www.w3.org/2000/svg">
<path d="M195.377 158.936C218.362 141.459 228.599 92.9958 191.277 69.2313C166.569 53.5013 151.202 62.4553 123.406 52.0687C89.4724 39.3685 84.4146 0.996876 43.1438 19.8778C21.2767 29.8772 6.11775 58.0606 3.45574 90.0918C0.832456 121.46 11.95 142.983 34.669 157.692C88.0204 159.982 141.478 159.57 195.377 158.936Z" fill="#05D8E8" fill-opacity="0.7"/>
<path d="M100.948 21.0878C97.4777 35.027 110.371 48.8259 123.953 54.5468C137.534 60.2677 153.109 59.5901 167.658 56.8603C173.95 55.6842 180.392 54.0289 185.271 50.0262C190.149 46.0235 192.976 39.0733 190.304 33.4588C187.942 28.5075 182.202 25.9713 176.723 24.6694C171.244 23.3674 165.436 22.835 160.558 20.0956C155.93 17.4965 152.649 13.1937 148.627 9.78635C141.197 3.49918 130.748 0.391887 121.092 2.37145C111.436 4.35102 103.9 9.23943 100.948 21.0878Z" fill="#05D8E8" fill-opacity="0.7"/>
<path d="M204.94 85.2034V74.657H200.928C200.454 72.8383 199.731 71.0939 198.779 69.4734L201.606 66.642L194.152 59.1835L191.321 62.0101C189.7 61.0576 187.956 60.3344 186.137 59.8611V55.8633H175.605V59.8611C173.791 60.3363 172.052 61.0594 170.436 62.0101L167.605 59.1835L160.146 66.642L162.973 69.4734C162.023 71.0949 161.3 72.8391 160.824 74.657H156.826V85.2034H160.824C161.3 87.0214 162.023 88.7656 162.973 90.3871L160.146 93.2185L167.605 100.672L170.436 97.8455C172.058 98.795 173.802 99.5195 175.62 99.9993V103.997H186.161V99.9993C187.979 99.5204 189.723 98.7958 191.345 97.8455L194.176 100.672L201.635 93.2185L198.808 90.3871C199.75 88.765 200.463 87.0206 200.928 85.2034H204.94ZM180.881 89.0754C179.073 89.0764 177.306 88.5413 175.803 87.5378C174.299 86.5343 173.127 85.1074 172.435 83.4378C171.743 81.7681 171.561 79.9306 171.913 78.1577C172.265 76.3848 173.135 74.7562 174.413 73.4777C175.69 72.1993 177.319 71.3285 179.091 70.9755C180.864 70.6225 182.702 70.8032 184.372 71.4947C186.042 72.1862 187.469 73.3574 188.474 74.8602C189.478 76.3631 190.014 78.13 190.014 79.9375C190.01 82.3581 189.046 84.6784 187.334 86.3896C185.622 88.1008 183.301 89.0632 180.881 89.0658V89.0754Z" fill="#213476" fill-opacity="0.3"/>
<path d="M173.074 111.625L171.07 106.388L169.086 107.148C168.505 106.337 167.814 105.61 167.033 104.989L167.9 103.053L162.779 100.779L161.913 102.715C160.929 102.549 159.927 102.521 158.936 102.632L158.171 100.648L152.944 102.657L153.704 104.636C152.894 105.22 152.167 105.912 151.545 106.693L149.609 105.827L147.33 110.943L149.266 111.809C149.104 112.795 149.078 113.798 149.188 114.79L147.204 115.55L149.212 120.782L151.192 120.023C151.775 120.832 152.465 121.558 153.244 122.181L152.383 124.117L157.499 126.392L158.365 124.456C159.35 124.622 160.354 124.649 161.346 124.538L162.106 126.523L167.338 124.514L166.564 122.539C167.375 121.955 168.102 121.263 168.727 120.482L170.663 121.349L172.943 116.233L171.007 115.366C171.17 114.381 171.198 113.378 171.089 112.385L173.074 111.625ZM161.879 118.12C160.986 118.459 160.013 118.527 159.082 118.314C158.151 118.101 157.304 117.617 156.647 116.924C155.99 116.231 155.553 115.358 155.391 114.417C155.229 113.476 155.349 112.508 155.736 111.635C156.123 110.762 156.759 110.023 157.565 109.51C158.371 108.998 159.311 108.736 160.266 108.757C161.22 108.777 162.148 109.08 162.931 109.627C163.714 110.173 164.318 110.939 164.667 111.828C164.9 112.424 165.013 113.06 165 113.7C164.986 114.34 164.845 114.971 164.586 115.556C164.327 116.141 163.954 116.669 163.489 117.109C163.024 117.55 162.477 117.893 161.879 118.12Z" fill="#213476" fill-opacity="0.3" stroke="#213476" stroke-opacity="0.3" stroke-miterlimit="10"/>
<path d="M155.94 93.2812L154.585 89.748L153.244 90.261C152.851 89.7161 152.386 89.2276 151.86 88.809L152.441 87.4974L148.985 85.9583L148.4 87.2699C147.734 87.1584 147.057 87.1389 146.386 87.2118L145.873 85.876L142.34 87.2312L142.853 88.567C142.309 88.9631 141.821 89.4303 141.401 89.9561L140.089 89.3705L138.541 92.8359L139.852 93.4216C139.74 94.0869 139.722 94.7647 139.799 95.435L138.458 95.948L139.813 99.4813L141.154 98.9682C141.547 99.5131 142.013 100.002 142.538 100.42L141.958 101.732L145.413 103.271L145.999 101.959C146.665 102.069 147.342 102.087 148.012 102.013L148.525 103.353L152.059 101.998L151.56 100.653C152.105 100.26 152.594 99.7938 153.012 99.2683L154.324 99.8491L155.863 96.3933L154.551 95.8077C154.664 95.1424 154.681 94.4646 154.605 93.7942L155.94 93.2812ZM148.375 97.6759C147.77 97.9075 147.11 97.9545 146.478 97.811C145.847 97.6675 145.271 97.3399 144.826 96.8696C144.38 96.3993 144.084 95.8075 143.975 95.1688C143.865 94.5302 143.948 93.8735 144.211 93.2817C144.475 92.69 144.908 92.1897 145.456 91.8441C146.004 91.4985 146.643 91.3231 147.29 91.3402C147.938 91.3572 148.566 91.5659 149.095 91.9398C149.624 92.3137 150.031 92.8361 150.263 93.4409C150.574 94.2529 150.549 95.1549 150.195 95.9489C149.841 96.7429 149.187 97.364 148.375 97.6759Z" fill="#213476" fill-opacity="0.3" stroke="#213476" stroke-opacity="0.3" stroke-miterlimit="10"/>
<path d="M154.711 31.4117C154.711 34.7078 153.733 37.9298 151.902 40.6703C150.071 43.4108 147.468 45.5467 144.423 46.8079C141.377 48.069 138.027 48.3987 134.794 47.7553C131.561 47.1119 128.592 45.5243 126.262 43.1933C123.931 40.8623 122.345 37.8926 121.702 34.6598C121.06 31.4269 121.39 28.0762 122.652 25.0313C123.914 21.9864 126.051 19.3841 128.792 17.5536C131.533 15.7231 134.756 14.7466 138.052 14.7476C140.24 14.7457 142.408 15.1754 144.43 16.0122C146.453 16.8491 148.29 18.0766 149.837 19.6244C151.385 21.1723 152.612 23.0101 153.448 25.0327C154.284 27.0554 154.713 29.223 154.711 31.4117Z" fill="#05D8E8"/>
<path d="M138.722 31.3334C141.712 30.9642 143.836 28.2411 143.467 25.2513C143.098 22.2615 140.375 20.137 137.385 20.5063C134.395 20.8755 132.271 23.5985 132.64 26.5884C133.009 29.5782 135.732 31.7026 138.722 31.3334Z" fill="white"/>
<path d="M148.38 42.3837C145.438 44.7065 141.798 45.9699 138.049 45.9699C134.3 45.9699 130.661 44.7065 127.718 42.3837C128.783 37.6938 129.765 33.6717 130.782 32.6214C132.234 31.1694 136.053 30.3418 138.042 30.3418C140.031 30.3418 144.044 31.3582 144.784 32.0987C146.294 33.6088 147.596 37.7664 148.38 42.3837Z" fill="white"/>
<path d="M114.103 72.508V64.28C114.103 63.2017 114.532 62.1676 115.294 61.4052C116.056 60.6427 117.091 60.2144 118.169 60.2144H144.092C144.627 60.2125 145.157 60.3162 145.652 60.5197C146.147 60.7231 146.597 61.0223 146.976 61.4C147.355 61.7777 147.656 62.2266 147.861 62.7208C148.066 63.215 148.172 63.7449 148.172 64.28V72.508C148.172 73.5863 147.744 74.6204 146.981 75.3828C146.219 76.1453 145.185 76.5736 144.106 76.5736H118.164C117.086 76.5723 116.054 76.1434 115.292 75.3811C114.531 74.6188 114.103 73.5854 114.103 72.508Z" fill="#05D8E8"/>
<path d="M125.051 72.0532L112.506 84.2742L132.839 73.9989" fill="#05D8E8"/>
<path d="M117.249 64.0529V64.0093C117.249 63.8488 117.313 63.695 117.426 63.5815C117.54 63.468 117.694 63.4043 117.854 63.4043H130.67C130.831 63.4043 130.985 63.468 131.098 63.5815C131.212 63.695 131.276 63.8488 131.276 64.0093V64.0529C131.276 64.2133 131.212 64.3672 131.098 64.4807C130.985 64.5941 130.831 64.6579 130.67 64.6579H117.854C117.694 64.6579 117.54 64.5941 117.426 64.4807C117.313 64.3672 117.249 64.2133 117.249 64.0529Z" fill="white"/>
<path d="M131.851 64.0529V64.0093C131.851 63.8488 131.915 63.695 132.029 63.5815C132.142 63.468 132.296 63.4043 132.456 63.4043H143.642C143.802 63.4043 143.956 63.468 144.07 63.5815C144.183 63.695 144.247 63.8488 144.247 64.0093V64.0529C144.247 64.2133 144.183 64.3672 144.07 64.4807C143.956 64.5941 143.802 64.6579 143.642 64.6579H132.456C132.296 64.6579 132.142 64.5941 132.029 64.4807C131.915 64.3672 131.851 64.2133 131.851 64.0529Z" fill="white"/>
<path d="M126.968 66.8068V66.7632C126.968 66.6027 127.032 66.4489 127.145 66.3354C127.259 66.2219 127.413 66.1582 127.573 66.1582H143.642C143.802 66.1582 143.956 66.2219 144.07 66.3354C144.183 66.4489 144.247 66.6027 144.247 66.7632V66.8068C144.247 66.9672 144.183 67.1211 144.07 67.2346C143.956 67.348 143.802 67.4118 143.642 67.4118H127.573C127.413 67.4118 127.259 67.348 127.145 67.2346C127.032 67.1211 126.968 66.9672 126.968 66.8068Z" fill="white"/>
<path d="M117.249 66.8068V66.7632C117.249 66.6027 117.313 66.4489 117.426 66.3354C117.54 66.2219 117.694 66.1582 117.854 66.1582H125.032C125.192 66.1582 125.346 66.2219 125.46 66.3354C125.573 66.4489 125.637 66.6027 125.637 66.7632V66.8068C125.637 66.9672 125.573 67.1211 125.46 67.2346C125.346 67.348 125.192 67.4118 125.032 67.4118H117.854C117.694 67.4118 117.54 67.348 117.426 67.2346C117.313 67.1211 117.249 66.9672 117.249 66.8068Z" fill="white"/>
<path d="M129.199 69.5607V69.5171C129.199 69.3567 129.263 69.2028 129.377 69.0893C129.49 68.9758 129.644 68.9121 129.804 68.9121H143.642C143.803 68.9121 143.956 68.9758 144.07 69.0893C144.183 69.2028 144.247 69.3567 144.247 69.5171V69.5607C144.247 69.7211 144.183 69.875 144.07 69.9885C143.956 70.1019 143.803 70.1657 143.642 70.1657H129.804C129.644 70.1657 129.49 70.1019 129.377 69.9885C129.263 69.875 129.199 69.7211 129.199 69.5607Z" fill="white"/>
<path d="M117.249 69.5607V69.5171C117.249 69.3567 117.313 69.2028 117.426 69.0893C117.54 68.9758 117.694 68.9121 117.854 68.9121H127.413C127.574 68.9121 127.728 68.9758 127.841 69.0893C127.954 69.2028 128.018 69.3567 128.018 69.5171V69.5607C128.018 69.7211 127.954 69.875 127.841 69.9885C127.728 70.1019 127.574 70.1657 127.413 70.1657H117.854C117.694 70.1657 117.54 70.1019 117.426 69.9885C117.313 69.875 117.249 69.7211 117.249 69.5607Z" fill="white"/>
<path d="M117.249 72.3146V72.271C117.249 72.1106 117.313 71.9567 117.426 71.8432C117.54 71.7298 117.694 71.666 117.854 71.666H121.402C121.562 71.666 121.716 71.7298 121.83 71.8432C121.943 71.9567 122.007 72.1106 122.007 72.271V72.3146C122.007 72.475 121.943 72.6289 121.83 72.7424C121.716 72.8558 121.562 72.9196 121.402 72.9196H117.854C117.694 72.9196 117.54 72.8558 117.426 72.7424C117.313 72.6289 117.249 72.475 117.249 72.3146Z" fill="white"/>
<path d="M123.26 72.3146V72.271C123.26 72.1106 123.324 71.9567 123.438 71.8432C123.551 71.7298 123.705 71.666 123.865 71.666H143.642C143.802 71.666 143.956 71.7298 144.069 71.8432C144.183 71.9567 144.247 72.1106 144.247 72.271V72.3146C144.247 72.475 144.183 72.6289 144.069 72.7424C143.956 72.8558 143.802 72.9196 143.642 72.9196H123.865C123.705 72.9196 123.551 72.8558 123.438 72.7424C123.324 72.6289 123.26 72.475 123.26 72.3146Z" fill="white"/>
<path d="M50.111 60.8306C53.8455 52.8036 50.3657 43.269 42.3388 39.5345C34.3118 35.8 24.7772 39.2797 21.0427 47.3067C17.3082 55.3337 20.7879 64.8682 28.8149 68.6028C36.8419 72.3373 46.3764 68.8575 50.111 60.8306Z" fill="#05D8E8"/>
<path d="M33.0805 65.6121C35.1057 64.9009 36.1709 62.6826 35.4597 60.6574C34.7485 58.6322 32.5302 57.567 30.505 58.2782C28.4798 58.9894 27.4146 61.2077 28.1258 63.2329C28.837 65.2581 31.0553 66.3233 33.0805 65.6121Z" fill="white"/>
<path d="M29.7613 63.3365L29.5725 60.8729L31.615 59.479L33.8414 60.5486L34.0302 63.0122L31.9877 64.4061L29.7613 63.3365Z" fill="#05D8E8"/>
<path d="M40.6634 49.8677C42.6846 49.1452 43.7374 46.921 43.0149 44.8998C42.2924 42.8785 40.0682 41.8257 38.0469 42.5482C36.0257 43.2707 34.9729 45.495 35.6954 47.5162C36.4179 49.5374 38.6422 50.5902 40.6634 49.8677Z" fill="white"/>
<path d="M37.4276 47.3642L37.5631 44.2327L39.9202 42.1709L42.1515 43.2405L42.0159 46.372L39.654 48.4339L37.4276 47.3642Z" fill="#05D8E8"/>
<path d="M34.4901 60.1469L31.5183 58.6949L33.7157 53.6322C33.856 53.308 34.0061 52.9933 34.1706 52.6642L36.7504 47.8242L39.7221 49.252L37.6022 54.2421C37.4376 54.6293 37.2586 55.0068 37.0601 55.3746L34.4901 60.1469Z" fill="white"/>
<path d="M47 62.929C47.576 62.6677 56.772 63.0839 56.772 63.0839L50.1412 57L47 62.929Z" fill="#05D8E8"/>
<path d="M87.3022 26.9683C90.7564 18.9825 87.0827 9.70856 79.0969 6.25444C71.111 2.80032 61.8371 6.47399 58.383 14.4598C54.9289 22.4456 58.6026 31.7196 66.5884 35.1737C74.5742 38.6278 83.8481 34.9541 87.3022 26.9683Z" fill="#05D8E8"/>
<path d="M73.3697 7.28906H72.3195V20.5216H73.3697V7.28906Z" fill="white"/>
<path d="M61.2177 28.1569L61.8154 29.0205L72.8431 21.3874L72.2453 20.5239L61.2177 28.1569Z" fill="white"/>
<path d="M74.2941 20.7201C74.2941 21.0072 74.209 21.288 74.0494 21.5268C73.8899 21.7655 73.6631 21.9516 73.3978 22.0615C73.1325 22.1714 72.8405 22.2002 72.5589 22.1442C72.2772 22.0881 72.0185 21.9499 71.8154 21.7468C71.6124 21.5437 71.4741 21.285 71.418 21.0033C71.362 20.7217 71.3908 20.4297 71.5007 20.1644C71.6106 19.8991 71.7967 19.6723 72.0354 19.5128C72.2742 19.3532 72.555 19.2681 72.8421 19.2681C73.2272 19.2681 73.5966 19.421 73.8689 19.6933C74.1412 19.9657 74.2941 20.335 74.2941 20.7201Z" fill="white"/>
<path d="M115.618 127.399C114.684 112.995 120.986 98.0877 131.59 89.5596C131.929 104.036 125.69 118.687 115.618 127.399Z" fill="#213476" fill-opacity="0.5"/>
<path d="M129.867 93.4365C125.373 101.821 121.511 110.53 118.314 119.49C114.408 130.414 111.335 142.021 104.646 151.178" stroke="#213476" stroke-miterlimit="10" stroke-linecap="round"/>
<path d="M112.269 136.459C117.641 124.441 128.304 115.362 140.06 112.792C135.056 125.671 123.798 135.496 112.269 136.459Z" fill="#213476" fill-opacity="0.5"/>
<path d="M137.175 115.439C129.147 122.505 120.982 129.372 112.68 136.038" stroke="#213476" stroke-miterlimit="10" stroke-linecap="round"/>
<path d="M109.099 146.928C116.276 136.208 129.519 130.612 140.477 133.671C132.418 144.256 119.132 149.866 109.099 146.928Z" fill="#F8A68B"/>
<path d="M137.848 134.46C128.58 140.288 118.454 144.623 107.84 147.306" stroke="#6F8BBF" stroke-miterlimit="10" stroke-linecap="round"/>
<path d="M112.976 132.815C115.27 120.744 111.828 107.288 104.167 98.3877C101.026 110.26 104.022 124.151 112.976 132.815Z" fill="#213476" fill-opacity="0.5"/>
<path d="M104.956 101.466C106.376 112.453 109.188 123.215 113.324 133.492" stroke="#213476" stroke-miterlimit="10" stroke-linecap="round"/>
<path d="M109.036 143.095C108.068 130.685 101.698 119.031 92.3958 112.603C92.9231 119.083 94.6376 125.411 97.4536 131.271C100.643 137.882 105.328 142.079 109.036 143.095Z" fill="#F8A68B"/>
<path d="M93.775 115.1C97.3541 125.301 102.587 134.844 109.263 143.346" stroke="#F66F4D" stroke-miterlimit="10" stroke-linecap="round"/>
<path d="M180.876 140.118C185.953 126.91 197.632 116.194 210.511 112.932C204.868 125.961 193.349 136.464 180.876 140.118Z" fill="#213476" fill-opacity="0.5"/>
<path d="M207.39 115.676C199.977 121.314 192.995 127.496 186.5 134.17C178.572 142.311 171.094 151.391 161.429 156.821" stroke="#213476" stroke-miterlimit="10" stroke-linecap="round"/>
<path d="M174.202 146.822C183.882 138.308 197.022 134.572 208.464 137.079C198.765 146.512 184.787 150.67 174.202 146.822Z" fill="#213476" fill-opacity="0.5"/>
<path d="M204.829 138.265C194.827 141.285 184.795 144.069 174.734 146.619" stroke="#213476" stroke-miterlimit="10" stroke-linecap="round"/>
<path d="M167.106 154.856C177.846 148.235 191.843 148.656 200.275 155.853C188.828 161.99 174.792 161.564 167.106 154.856Z" fill="#213476" fill-opacity="0.5"/>
<path d="M197.637 155.466C187.061 156.875 176.329 156.602 165.838 154.658" stroke="#213476" stroke-miterlimit="10" stroke-linecap="round"/>
<path d="M176.322 143.864C183.296 134.049 185.769 120.657 182.647 109.602C175.005 118.885 171.956 132.49 176.322 143.864Z" fill="#213476" fill-opacity="0.5"/>
<path d="M182.081 112.68C178.829 123.043 176.902 133.777 176.346 144.624" stroke="#213476" stroke-miterlimit="10" stroke-linecap="round"/>
<path d="M168.626 151.4C172.846 139.949 172.014 126.968 166.419 117.443C164.23 123.428 163.152 129.763 163.239 136.135C163.34 143.342 165.76 148.98 168.626 151.4Z" fill="#A2C7EB"/>
<path d="M166.603 120.255C165.586 130.795 166.3 141.43 168.718 151.739" stroke="#213476" stroke-miterlimit="10" stroke-linecap="round"/>
<path d="M36.9825 117.036C31.8037 101.195 17.3611 88.403 0.551758 84.7729C7.62301 98.4702 20.4345 109.37 36.9825 117.036Z" fill="#213476" fill-opacity="0.5"/>
<path d="M37.8586 119.48C32.1407 116.298 25.8313 114.322 19.3198 113.674C12.8084 113.025 6.23314 113.718 0 115.71C11.73 121.567 25.2037 122.909 37.8586 119.48Z" fill="#213476" fill-opacity="0.5"/>
<path d="M40.9948 122.917C28.7399 121.218 15.9091 124.238 5.95801 131.145C17.2401 135.264 30.7776 132.602 40.9948 122.917Z" fill="#213476" fill-opacity="0.5"/>
<path d="M44.8136 130.414C32.6797 130.365 20.749 136.13 13.6149 145.495C19.0372 146.573 24.6604 145.941 29.7079 143.685C34.6592 141.444 38.812 137.611 44.8136 130.414Z" fill="#213476" fill-opacity="0.5"/>
<path d="M53.3707 142.964C41.4013 140.912 28.6576 144.619 20.0278 152.644C25.2026 154.601 30.8562 154.909 36.2128 153.525C41.4788 152.15 46.2268 149.062 53.3707 142.964Z" fill="#213476" fill-opacity="0.5"/>
<path d="M40.4526 117.777C32.5488 107.129 30.4047 92.7734 34.8962 80.5669C38.323 86.3749 41.2802 92.5072 42.6403 99.0315C44.0003 105.556 43.7728 112.511 40.4526 117.777Z" fill="#213476" fill-opacity="0.5"/>
<path d="M45.2784 128.052C44.3868 122.372 44.842 116.561 46.6075 111.089C48.3729 105.617 51.3992 100.636 55.4424 96.5483C56.3862 108.256 52.8239 120.182 45.2784 128.052Z" fill="#A2C7EB"/>
<path d="M4.23511 87.6089C28.2851 102.995 47.0886 125.927 57.0154 151.981" stroke="#213476" stroke-miterlimit="10" stroke-linecap="round"/>
<path d="M35.6418 86.1812C38.5702 98.0378 40.353 110.148 40.9659 122.346" stroke="#213476" stroke-miterlimit="10" stroke-linecap="round"/>
<path d="M53.6514 101.142C52.6778 110.767 49.7337 120.088 45.0023 128.526" stroke="#6F8BBF" stroke-miterlimit="10" stroke-linecap="round"/>
<path d="M5.0625 115.986C16.0888 118.078 27.2755 119.211 38.4973 119.374" stroke="#213476" stroke-miterlimit="10" stroke-linecap="round"/>
<path d="M11.6838 130.22C21.8281 129.481 31.7735 127.027 41.0966 122.96" stroke="#213476" stroke-miterlimit="10" stroke-linecap="round"/>
<path d="M17.7965 143.787L45.9363 129.751" stroke="#213476" stroke-miterlimit="10" stroke-linecap="round"/>
<path d="M23.895 152.049C36.1451 149.682 39.7799 146.865 53.3755 142.964" stroke="#213476" stroke-miterlimit="10" stroke-linecap="round"/>
<path d="M101.427 129.62C101.427 129.62 102.487 139.334 103.673 140.113C105.793 141.512 130.332 144.745 130.332 144.745L129.528 151.129C129.528 151.129 95.9194 154.149 94.4916 152.47C92.0135 149.566 87.6575 135.501 87.6575 135.501L101.427 129.62Z" fill="#E06A58"/>
<path d="M85.2229 104.607L87.9381 98.0874C87.9381 98.0874 95.3046 101.548 97.7343 105.831C100.333 110.4 103.513 134.692 103.513 134.692C103.513 134.692 90.5082 137.688 88.1172 136.415C85.7263 135.143 85.2229 104.607 85.2229 104.607Z" fill="#FF296D"/>
<path d="M64.5416 74.3471C62.6395 73.6501 60.626 73.0403 58.5884 73.1952C56.5507 73.3501 54.4695 74.4439 53.7919 76.2202C53.3079 77.4883 53.5257 78.9838 52.7465 80.1261C51.9673 81.2683 50.5201 81.6749 49.1359 81.7668C47.7516 81.8588 46.348 81.6797 44.9686 81.8588C40.7094 82.4251 37.6699 87.0521 39.0686 90.8419C39.6252 92.3519 40.7675 93.7943 40.5206 95.3673C40.2447 97.0516 38.4781 98.16 37.7521 99.7233C36.7841 101.804 37.9409 104.326 39.843 105.744C41.7452 107.162 44.199 107.68 46.619 108.053C49.9248 108.537 53.337 108.779 56.604 108.082C59.871 107.385 62.9928 105.662 64.682 102.971C65.4322 101.78 65.8871 100.435 66.7583 99.3167C68.5588 97.008 71.7484 96.1126 74.2603 94.4767C77.0046 92.6811 79.0181 89.1866 77.4015 86.452C75.843 83.8238 71.7871 83.2382 70.1415 80.644C69.4687 79.5743 69.309 78.3014 68.8734 77.1349C68.4378 75.9685 67.344 75.378 64.5416 74.3471Z" fill="#0A2240"/>
<path d="M75.6251 106.587C76.1091 107.139 76.6706 107.744 77.4547 107.797C78.2387 107.85 78.9744 107.269 79.5068 106.703C82.1988 103.881 84.0436 100.359 84.8308 96.5389C84.1484 96.1517 83.4902 95.779 82.8948 95.4306C82.3648 95.1248 81.9435 94.6612 81.6897 94.1044C81.5262 93.7098 81.4646 93.2803 81.5106 92.8557C81.7567 89.6594 82.4323 86.5109 83.5192 83.4951C77.4498 82.1254 71.7241 80.4991 68.4329 77.75C68.0312 79.444 67.5568 82.7594 66.5453 86.0458C65.466 89.5257 63.7816 92.967 60.926 94.448C66.4392 97.6882 71.401 101.786 75.6251 106.587Z" fill="#F9A07B"/>
<path d="M81.4863 92.8606C81.4401 93.2852 81.5017 93.7147 81.6654 94.1093C78.0741 98.4653 70.0494 92.7734 66.521 86.0507C67.5326 82.7643 68.0069 79.4489 68.4086 77.7549C71.695 80.504 77.4255 82.1109 83.4949 83.5C82.4076 86.5157 81.732 89.6642 81.4863 92.8606Z" fill="#E06A58"/>
<path d="M91.486 145.52C90.6923 150.776 96.3648 156.434 96.5051 159.241C84.4583 159.241 59.237 159.977 46.3723 158.229C45.7866 154.987 52.1319 147.693 52.1319 140.491C52.1319 139.523 52.0932 138.492 52.0157 137.369C51.8125 134.155 51.3381 130.332 50.8106 126.411C49.3586 115.894 47.471 104.631 48.8746 102.313C51.6334 97.768 58.0706 94.6801 61.2844 93.3539C62.383 92.8989 63.0994 92.6521 63.1526 92.623C67.165 99.4668 75.3301 105.304 78.4132 105.043C79.2698 104.975 81.8012 104.075 83.4903 95.6335C84.1437 96.0062 84.7971 96.3499 85.4263 96.6838C88.6159 98.3439 91.607 99.7137 92.4686 101.848C94.7434 107.467 96.9746 121.634 96.4809 126.673C95.9872 131.711 93.9641 135.636 92.5121 140.752C92.1782 141.948 91.8732 143.216 91.6264 144.581C91.5828 144.871 91.5441 145.19 91.486 145.52Z" fill="#FF296D"/>
<path d="M96.5051 159.241C84.4583 159.241 59.237 159.977 46.3723 158.229C45.7866 154.987 52.1319 147.693 52.1319 140.491C52.1319 139.523 52.0932 138.492 52.0157 137.369C51.8125 134.155 51.3381 130.332 50.8106 126.411C53.0902 128.831 56.4153 118.667 57.8867 121.629C65.8485 137.698 72.126 141.923 83.0547 141.923C86.2415 141.894 89.4145 141.501 92.5121 140.752C92.1782 141.948 91.8732 143.216 91.6264 144.581C91.5683 144.903 91.5151 145.226 91.4667 145.549C90.6923 150.771 96.3841 156.429 96.5051 159.241Z" fill="#FF296D"/>
<path d="M85.4506 96.7082C84.9328 100.469 83.3985 105.536 78.936 106.872C72.9053 108.678 64.1788 97.41 61.2893 93.3783C62.388 92.9233 63.1043 92.6765 63.1576 92.6475C67.1699 99.4912 75.335 105.328 78.4181 105.067C79.2748 104.999 81.8061 104.099 83.4953 95.6579C84.1487 96.0016 84.8021 96.3452 85.4506 96.7082Z" fill="#FF296D"/>
<path d="M87.9286 153.583L87.885 157.779L162.905 158.225L163.06 153.467L87.9286 153.583Z" fill="#325F73"/>
<path d="M195.42 116.146L193.75 114.452L139.107 114.094L111.693 153.738L113.125 154.89L195.42 116.146Z" fill="#325F73"/>
<path d="M140.162 115.56L113.125 154.89L164.768 155.146L195.42 116.146L140.162 115.56Z" fill="#0B2D50"/>
<path d="M153.211 140.665C156.53 140.665 159.222 139.319 159.222 137.659C159.222 135.999 156.53 134.654 153.211 134.654C149.891 134.654 147.199 135.999 147.199 137.659C147.199 139.319 149.891 140.665 153.211 140.665Z" fill="#05D8E8"/>
<path d="M99.9621 78.7781C100.814 74.2084 99.0612 70.0484 96.0471 69.4865C93.033 68.9246 89.899 72.1736 89.0471 76.7434C88.1952 81.3131 89.948 85.4731 92.9621 86.035C95.9762 86.5969 99.1102 83.3479 99.9621 78.7781Z" fill="#EA8577"/>
<path d="M99.9606 64.4255C99.3992 68.404 97.6229 72.789 95.0335 77.6339C94.1236 73.6651 93.5428 68.8299 92.7393 63.9947C91.9359 59.1596 90.8807 54.3147 89.0754 50.3459C88.6831 49.4911 88.2403 48.6604 87.7493 47.8581C88.8194 47.7588 89.8986 47.8556 90.934 48.1437C92.5529 48.5817 94.0454 49.396 95.29 50.5201C97.3056 52.4061 98.7724 54.8029 99.5347 57.4559C100.203 59.7168 100.348 62.1 99.9606 64.4255Z" fill="#0B2D50"/>
<path d="M96.9213 68.5393C96.8923 69.3234 96.839 70.122 96.7664 70.9157C95.6629 83.7901 90.2566 92.6232 81.9851 92.6232C70.3061 92.6232 62.7363 79.5261 62.7363 66.6952C62.7363 54.0386 70.4803 44.8765 79.565 45.9364C84.7971 46.5366 88.6207 48.2741 91.336 50.82C93.1083 52.5127 94.4692 54.5889 95.3144 56.8894C96.336 59.6923 96.8776 62.6474 96.9165 65.6304C96.9165 65.6304 96.9165 65.6304 96.9165 65.6595C96.9649 66.5984 96.9552 67.5568 96.9213 68.5393Z" fill="#F9A07B"/>
<path d="M96.921 68.5392C96.578 67.2842 96.0477 66.0882 95.348 64.9914C88.3174 68.6511 80.2921 69.9397 72.4693 68.665L68.0842 72.3289C68.1133 66.4725 68.1955 62.5085 70.48 59.6723C72.6242 57.0103 76.2009 56.0084 79.5889 55.5728C83.4059 55.0717 87.2736 55.0961 91.084 55.6454C92.5628 55.7885 94.0005 56.2141 95.319 56.8989C96.3405 59.7019 96.8821 62.657 96.921 65.64C96.921 65.64 96.921 65.64 96.921 65.669C96.9646 66.5983 96.9549 67.5566 96.921 68.5392Z" fill="#E06A58"/>
<path d="M98.6053 60.6113C96.8405 62.0425 94.8608 63.1859 92.7392 63.9993C86.3213 66.5887 77.982 67.4454 71.4819 67.1308C68.2875 74.1488 66.9952 76.6656 66.1579 82.7882C63.0361 79.86 60.495 74.4973 59.74 70.2816C58.941 66.053 59.1065 61.6986 60.224 57.5427C60.9549 55.0317 62.195 52.698 63.867 50.687C65.539 48.6761 67.6072 47.031 69.9427 45.8541C70.6186 45.4878 71.317 45.1644 72.0336 44.8861C76.1525 43.2937 80.7941 43.4341 85.0194 44.7312C87.2068 45.4211 89.2137 46.5882 90.8952 48.1483C94.1912 51.1249 96.2192 55.1566 97.5453 58.1768C97.9954 59.1012 98.3197 59.924 98.6053 60.6113Z" fill="#0B2D50"/>
<path d="M99.9606 64.4253C99.7018 63.0217 99.2912 61.6504 98.7361 60.3355C98.4157 59.5823 98.0303 58.8584 97.5842 58.172C96.1645 55.8351 93.9812 54.0604 91.4035 53.1481C90.7044 52.1601 89.9275 51.2295 89.0803 50.3651C86.403 47.572 82.8931 45.7211 79.076 45.0895C76.0282 44.6059 72.9085 44.8717 69.9865 45.8639C70.6623 45.4975 71.3607 45.1742 72.0773 44.8959C76.1962 43.3035 80.8378 43.4439 85.0631 44.741C87.2505 45.4309 89.2574 46.598 90.9389 48.158C92.5577 48.5961 94.0503 49.4103 95.2949 50.5345C97.3104 52.4204 98.7773 54.8172 99.5396 57.4702C100.201 59.7274 100.345 62.1048 99.9606 64.4253Z" fill="#225570"/>
<path d="M75.2039 72.3195C77.3625 71.0853 79.6034 70.5287 82.7446 71.6757" stroke="#0B2D50" stroke-width="2" stroke-miterlimit="10" stroke-linecap="round"/>
<path d="M89.9855 72.2324C91.8344 70.853 94.5738 70.7126 96.0016 72.2324" stroke="#0B2D50" stroke-width="2" stroke-miterlimit="10" stroke-linecap="round"/>
<path d="M87.7541 79.2842C87.9429 80.2522 87.8412 82.4253 87.3766 83.3982" stroke="#CC454E" stroke-width="2" stroke-miterlimit="10" stroke-linecap="round"/>
<path d="M80.4604 79.9278C80.9522 79.9278 81.351 79.2994 81.351 78.5242C81.351 77.749 80.9522 77.1206 80.4604 77.1206C79.9685 77.1206 79.5698 77.749 79.5698 78.5242C79.5698 79.2994 79.9685 79.9278 80.4604 79.9278Z" fill="#262D40"/>
<path d="M92.1006 79.2745C92.5925 79.2745 92.9912 78.6461 92.9912 77.8709C92.9912 77.0957 92.5925 76.4673 92.1006 76.4673C91.6088 76.4673 91.2101 77.0957 91.2101 77.8709C91.2101 78.6461 91.6088 79.2745 92.1006 79.2745Z" fill="#262D40"/>
<path d="M86.6508 85.2956C86.5078 85.5726 86.3461 85.8394 86.1668 86.0942C85.5222 87.0307 84.6044 87.7456 83.5387 88.1416C82.9937 88.3191 82.413 88.3574 81.8495 88.2529C80.0297 87.9286 79.5505 86.2491 79.4634 84.9568C79.4517 84.7247 79.4517 84.492 79.4634 84.2599C79.4667 83.9683 79.4893 83.6773 79.5311 83.3887C82.3867 84.9859 86.6508 85.2956 86.6508 85.2956Z" fill="#CC454E"/>
<path d="M86.6507 85.2956C86.5078 85.5726 86.3461 85.8394 86.1667 86.0942C84.6857 86.0942 81.6559 85.315 79.444 84.2599C79.4473 83.9683 79.4699 83.6773 79.5117 83.3887C82.3867 84.9859 86.6507 85.2956 86.6507 85.2956Z" fill="white"/>
<path d="M83.5096 88.1364C82.9647 88.314 82.384 88.3522 81.8205 88.2477C80.0006 87.9234 79.5214 86.2439 79.4343 84.9517C80.341 85.0558 81.2013 85.4083 81.9203 85.9703C82.6394 86.5322 83.1894 87.2818 83.5096 88.1364Z" fill="#E8729B"/>
<path d="M66.2065 70.088C66.2644 65.9623 67.0848 61.8829 68.6265 58.0557C71.7773 50.5295 78.2 47.3109 84.4291 47.0931C86.6785 47.0398 88.916 47.4343 91.0116 48.2536C93.1071 49.0728 95.0189 50.3006 96.6356 51.8653C96.6356 51.8653 94.1914 47.5529 89.3756 46.3138C86.2103 45.5007 81.4332 45.3458 77.5999 46.9285C73.6504 48.5306 68.7281 52.9785 66.9519 57.6782C65.1756 62.3778 64.3092 69.6959 64.3092 69.6959L66.2065 70.088Z" fill="#3D86E0"/>
<path d="M65.2937 85.5006C68.4931 85.1774 70.6898 80.9853 70.2001 76.1372C69.7104 71.2891 66.7198 67.621 63.5203 67.9441C60.3209 68.2673 58.1243 72.4594 58.614 77.3075C59.1037 82.1556 62.0943 85.8238 65.2937 85.5006Z" fill="#EA8577"/>
<path d="M64.611 84.2401C66.686 83.9282 67.9233 80.716 67.3744 77.0655C66.8256 73.415 64.6986 70.7086 62.6235 71.0206C60.5485 71.3325 59.3112 74.5448 59.8601 78.1952C60.4089 81.8457 62.536 84.5521 64.611 84.2401Z" fill="#FF296D"/>
<path d="M84.4678 92.8021C86.1893 92.8021 87.5848 91.9332 87.5848 90.8613C87.5848 89.7894 86.1893 88.9204 84.4678 88.9204C82.7463 88.9204 81.3508 89.7894 81.3508 90.8613C81.3508 91.9332 82.7463 92.8021 84.4678 92.8021Z" fill="#3A92C9"/>
<path d="M68.7959 84.3711C68.7959 84.3711 73.3746 90.2566 81.3364 90.8616Z" fill="#F66F4D"/>
<path d="M68.7959 84.3711C68.7959 84.3711 73.3746 90.2566 81.3364 90.8616" stroke="#05D8E8" stroke-width="2" stroke-miterlimit="10" stroke-linecap="round"/>
<path d="M87.8847 142.379L87.5846 150.123C87.5846 150.123 59.5996 158.506 54.9726 155.853C52.7171 154.556 50.6166 147.422 49.0387 140.457C47.3931 133.139 46.338 126.015 46.338 126.015L62.7456 122.801C62.7456 122.801 62.7456 132.805 63.3119 138.589C63.5104 140.743 63.7959 142.311 64.1783 142.567C65.6255 143.521 87.8847 142.379 87.8847 142.379Z" fill="#F9A07B"/>
<path d="M63.3119 138.579C60.3305 139.547 54.5999 141.043 49.0387 140.452C47.3931 133.134 46.338 126.01 46.338 126.01L62.7456 122.796C62.7456 122.796 62.7553 132.795 63.3119 138.579Z" fill="#E06A58"/>
<path d="M87.0864 142.456C91.2489 141.565 98.2959 139.426 101.219 138.69C103.296 138.168 108.702 140.965 110.13 143.603C110.754 144.755 111.345 151.279 109.162 150.607C108.078 150.268 108.257 147.47 107.918 146.328C107.642 145.399 106.761 144.499 105.42 143.724C106.316 145.955 106.282 147.901 106.185 150.311C106.204 150.845 106.098 151.375 105.875 151.86C105.761 152.096 105.568 152.284 105.329 152.391C105.09 152.498 104.82 152.518 104.569 152.446C104.085 152.243 103.905 151.628 103.794 151.091C103.357 149.177 103.048 147.237 102.87 145.283C102.908 147.349 102.87 149.421 102.734 151.483C102.637 153.06 101.853 153.927 100.89 153.651C100.459 153.53 100.285 153.133 100.101 152.61C99.8108 153.622 99.0848 154.74 98.1652 154.314C97.5941 154.058 97.2408 151.996 97.3424 149.876C95.4678 150.972 93.3383 151.558 91.1666 151.575C89.066 151.671 86.9171 151.279 85.6538 149.852C85.8794 147.344 86.3594 144.866 87.0864 142.456Z" fill="#F9A07B"/>
<path d="M100.164 152.281C100.305 150.605 100.16 148.918 99.7334 147.291" stroke="#CC454E" stroke-miterlimit="10" stroke-linecap="round"/>
<path d="M60.9018 106.567C59.7112 103.213 55.3503 96.3501 55.3503 96.3501C55.3503 96.3501 48.6953 99.1186 46.3334 103.818C42.3355 111.775 44.3683 134.62 44.3683 134.62C49.7553 136.875 60.5679 136.909 65.1804 136.261C65.1707 136.261 63.2879 113.271 60.9018 106.567Z" fill="#FF296D"/>
<path d="M61.7487 107.971C63.4746 116.111 64.5108 124.383 64.8463 132.698" stroke="#F2AE30" stroke-miterlimit="10" stroke-linecap="round"/>
<path d="M204.19 156.845H13.3584V161.632H204.19V156.845Z" fill="#05D8E8" fill-opacity="0.8"/>
</svg>
