<svg width="36" height="43" viewBox="0 0 36 43" fill="none" xmlns="http://www.w3.org/2000/svg">
<path fill-rule="evenodd" clip-rule="evenodd" d="M32.4411 10.9249C32.402 11.1799 32.3567 11.4406 32.3062 11.7084C30.5652 20.7583 24.6083 23.8847 17.0007 23.8847H13.1272C12.1967 23.8847 11.4125 24.5685 11.2678 25.4976L8.7229 41.8401C8.62868 42.4504 9.09311 43 9.70106 43H16.5714C17.3847 43 18.0759 42.4017 18.204 41.5895L18.2714 41.2362L19.565 32.9259L19.6482 32.4701C19.7747 31.6551 20.4675 31.0564 21.2808 31.0564H22.3082C28.9645 31.0564 34.1754 28.3207 35.6984 20.4035C36.3344 17.0963 36.0052 14.3347 34.3217 12.3925C33.8123 11.807 33.1803 11.3208 32.4411 10.9249Z" fill="#298FC2"/>
<path fill-rule="evenodd" clip-rule="evenodd" d="M30.619 10.1898C30.3529 10.1112 30.0785 10.0401 29.797 9.97589C29.5139 9.91322 29.2241 9.85774 28.9257 9.80905C27.8813 9.63822 26.7367 9.5572 25.511 9.5572H15.1629C14.9078 9.5572 14.6658 9.61547 14.4493 9.72084C13.9719 9.95314 13.6174 10.4105 13.5315 10.9705L11.3299 25.0863L11.2669 25.4978C11.4116 24.5686 12.1957 23.8849 13.1262 23.8849H16.9998C24.6074 23.8849 30.5642 20.7569 32.3052 11.7085C32.3573 11.4407 32.401 11.1801 32.4401 10.925C31.9997 10.6883 31.5226 10.486 31.0089 10.3136C30.882 10.2708 30.7511 10.2297 30.619 10.1898Z" fill="#22284F"/>
<path fill-rule="evenodd" clip-rule="evenodd" d="M13.5315 10.9705C13.6174 10.4105 13.9724 9.95317 14.4498 9.72247C14.6678 9.6167 14.9083 9.55843 15.1634 9.55843H25.5115C26.7373 9.55843 27.8818 9.63985 28.9262 9.81068C29.2246 9.85898 29.5144 9.91486 29.7975 9.97752C30.079 10.0414 30.3534 10.1128 30.6195 10.1911C30.7516 10.231 30.8825 10.2725 31.0106 10.3136C31.5243 10.486 32.0018 10.69 32.4422 10.9251C32.9602 7.58073 32.4378 5.30368 30.6518 3.24176C28.6825 0.971489 25.1287 0 20.5809 0H7.37802C6.44915 0 5.65669 0.683714 5.51318 1.61449L0.0140735 36.903C-0.0943474 37.6011 0.437506 38.2309 1.13298 38.2309H9.28386L13.5315 10.9705Z" fill="#28356A"/>
</svg>
