<svg width="20" height="19" viewBox="0 0 20 19" fill="none" xmlns="http://www.w3.org/2000/svg">
<g id="Character">
<path id="Vector" d="M0.0031245 7.75082C0.220793 7.32983 0.516572 7.16932 0.85401 7.32614C0.992005 7.39034 1.09667 7.53295 1.20759 7.6482C1.26912 7.72352 1.325 7.80338 1.37475 7.88711C1.3987 7.79134 1.41693 7.72924 1.43151 7.66293C2.27458 3.92664 4.50386 1.46647 8.12975 0.367679C11.6734 -0.705849 15.6586 0.630799 17.9535 3.583C19.4022 5.44642 20.1171 7.56769 19.9843 9.9305C19.7943 13.2458 18.294 15.8507 15.4841 17.5678C12.6263 19.3139 9.61021 19.4544 6.5639 18.0372C5.23393 17.4184 4.15288 16.468 3.28585 15.2734C3.0484 14.9466 3.09058 14.5677 3.38375 14.3483C3.67693 14.1288 4.04926 14.1999 4.28932 14.5225C5.54898 16.2233 7.21534 17.2721 9.28892 17.5978C13.2012 18.2109 16.8214 16.0433 18.1904 12.4707C19.6584 8.63964 18.1685 4.4192 14.6567 2.35581C11.4104 0.449773 7.14296 1.13125 4.62936 3.95032C3.58884 5.10252 2.89437 6.53023 2.62712 8.06656C2.62533 8.0793 2.62533 8.09224 2.62712 8.10498L2.67919 8.1576C2.77449 8.0392 2.86145 7.91185 2.96768 7.80344C3.23795 7.52769 3.61808 7.51769 3.87273 7.77029C4.12737 8.02288 4.12528 8.41072 3.85606 8.68647C3.34782 9.20534 2.83854 9.72316 2.32249 10.2341C2.01994 10.5346 1.5971 10.4999 1.36121 10.151C0.935245 9.51951 0.521258 8.88381 0.104148 8.24917C0.0650922 8.19023 0.0343687 8.1255 0 8.0634L0.0031245 7.75082Z" fill="#FF296D"/>
<path id="Vector_2" d="M10.9386 6.74285C10.9386 7.59746 10.9418 8.4526 10.9355 9.30721C10.9318 9.36468 10.9434 9.42212 10.969 9.47356C10.9946 9.525 11.0334 9.56859 11.0813 9.5998C12.1627 10.4218 13.2424 11.2462 14.3203 12.0731C14.4807 12.1952 14.6187 12.3305 14.6473 12.5425C14.6848 12.8162 14.5953 13.0409 14.3604 13.1845C14.1256 13.3282 13.874 13.3145 13.648 13.144C13.1419 12.7635 12.6383 12.3794 12.1337 11.9968C11.426 11.4606 10.721 10.9207 10.0086 10.3902C9.90561 10.32 9.82208 10.2244 9.76594 10.1124C9.7098 10.0004 9.68291 9.87575 9.68783 9.7503C9.68991 7.89092 9.68991 6.02997 9.68783 4.16743C9.68783 3.76696 9.95288 3.48332 10.3158 3.48648C10.6788 3.48963 10.936 3.77328 10.9366 4.17585C10.939 5.03257 10.9397 5.88823 10.9386 6.74285Z" fill="#FF296D"/>
</g>
</svg>
