<svg width="20" height="20" viewBox="0 0 20 20" fill="none" xmlns="http://www.w3.org/2000/svg">
<g id="Schedule">
<g id="Character">
<path id="Vector" d="M15.5451 19.9998H14.6858C14.6435 19.9858 14.6003 19.9743 14.5567 19.9654C12.7069 19.7049 11.4013 18.7151 10.6222 17.0221C10.5879 16.9476 10.555 16.872 10.5217 16.796H10.2749C7.45748 16.796 4.63992 16.796 1.82219 16.796C1.00353 16.796 0.331733 16.3271 0.0890523 15.59C0.0546812 15.4858 0.0296841 15.3785 0 15.2727V3.04316C0.104155 2.7655 0.168731 2.46544 0.317151 2.21435C0.713981 1.54442 1.32589 1.20008 2.10393 1.17247C2.49138 1.1584 2.87988 1.17247 3.28088 1.17247C3.28088 0.979199 3.28088 0.810935 3.28088 0.642672C3.284 0.263949 3.52564 -0.000167673 3.86675 -0.000167673C4.20785 -0.000167673 4.44949 0.263949 4.4521 0.643193C4.4521 0.816145 4.4521 0.988576 4.4521 1.15528H6.56175C6.56175 0.963571 6.56175 0.790619 6.56175 0.612458C6.56748 0.262386 6.81172 0.00452079 7.13825 -0.000167673C7.4731 -0.00537707 7.72672 0.256135 7.73245 0.615062C7.73245 0.795307 7.73245 0.975553 7.73245 1.1584H9.84263C9.84263 0.977115 9.84263 0.808852 9.84263 0.640588C9.84575 0.262907 10.089 -0.00173049 10.4306 -0.000167673C10.7722 0.00139515 11.0112 0.265512 11.0144 0.645277C11.0144 0.817708 11.0144 0.99066 11.0144 1.16153H13.1235C13.1235 0.971385 13.1209 0.790619 13.1235 0.610374C13.1292 0.261344 13.3756 0.00347891 13.7021 -0.000167673C14.0369 -0.00381425 14.2885 0.257177 14.2942 0.617146C14.2968 0.79687 14.2942 0.977115 14.2942 1.17143C14.6587 1.17143 15.0045 1.16517 15.3477 1.17143C15.5361 1.17145 15.724 1.19048 15.9086 1.22821C16.9127 1.46211 17.5751 2.31489 17.5751 3.37709C17.5775 5.82446 17.5775 8.27184 17.5751 10.7192C17.5707 10.7756 17.5828 10.8321 17.61 10.8817C17.6372 10.9313 17.6783 10.9718 17.7282 10.9984C19.0989 11.9017 19.8665 13.176 19.9873 14.8128C20.1477 16.9767 18.7739 19.0324 16.7174 19.7237C16.3372 19.8497 15.9357 19.9086 15.5451 19.9998ZM16.3981 6.25997H1.17174V14.9461C1.17174 15.3988 1.4014 15.6233 1.86125 15.6233H10.2488C10.14 13.9147 10.6774 12.4878 11.9674 11.3933C13.2573 10.2988 14.753 10.0097 16.394 10.3931L16.3981 6.25997ZM15.1217 11.4032C14.388 11.402 13.6705 11.6183 13.0597 12.0249C12.4489 12.4316 11.9724 13.0102 11.6903 13.6876C11.4081 14.3651 11.3331 15.1111 11.4747 15.8312C11.6163 16.5513 11.9681 17.2132 12.4857 17.7334C13.0033 18.2535 13.6634 18.6085 14.3826 18.7535C15.1018 18.8984 15.8478 18.8269 16.5264 18.5478C17.205 18.2687 17.7856 17.7947 18.1949 17.1856C18.6042 16.5765 18.8238 15.8597 18.826 15.1258C18.8269 14.1413 18.4375 13.1966 17.7431 12.4989C17.0486 11.8012 16.1059 11.4076 15.1217 11.4042V11.4032ZM1.17435 5.0618H16.4013C16.4013 4.44345 16.4153 3.83812 16.3966 3.23383C16.3899 3.01889 16.3065 2.81343 16.1617 2.65456C16.0168 2.49569 15.8199 2.39388 15.6065 2.3675C15.178 2.3227 14.7415 2.35761 14.2952 2.35761C14.2952 2.53368 14.2952 2.70195 14.2952 2.87021C14.2921 3.24893 14.05 3.51305 13.7083 3.51253C13.3667 3.51201 13.1271 3.24685 13.124 2.86761C13.124 2.69465 13.124 2.52222 13.124 2.35083H11.0144C11.0144 2.54098 11.017 2.72174 11.0144 2.90251C11.0076 3.25154 10.7613 3.50888 10.4347 3.51253C10.0999 3.51566 9.84887 3.25206 9.84367 2.89417C9.84367 2.71393 9.84367 2.5342 9.84367 2.35552H7.73349C7.73349 2.54462 7.73349 2.72018 7.73349 2.89522C7.72776 3.25519 7.4731 3.5167 7.14085 3.51253C6.8086 3.50836 6.568 3.25206 6.56279 2.90095C6.55967 2.7207 6.56279 2.53994 6.56279 2.35292H4.45262C4.45262 2.53264 4.45262 2.70091 4.45262 2.86917C4.45001 3.24789 4.20837 3.51253 3.86727 3.51253C3.52616 3.51253 3.28452 3.24789 3.2814 2.86865C3.2814 2.69622 3.2814 2.52327 3.2814 2.34406C2.85697 2.34406 2.46014 2.32843 2.06435 2.34771C1.59565 2.37115 1.19518 2.76446 1.17903 3.23331C1.15976 3.83812 1.17435 4.44345 1.17435 5.0618Z" fill="#FF296D"/>
<path id="Vector_2" d="M3.57835 10.3501C3.74083 10.3501 3.90331 10.3454 4.06527 10.3501C4.22024 10.3501 4.36886 10.4117 4.47844 10.5213C4.58802 10.6309 4.64958 10.7796 4.64958 10.9346C4.64958 11.0896 4.58802 11.2383 4.47844 11.3479C4.36886 11.4575 4.22024 11.5191 4.06527 11.5191C3.73458 11.5264 3.40337 11.5274 3.07268 11.5191C2.91785 11.5191 2.76936 11.4576 2.65988 11.3481C2.5504 11.2385 2.48889 11.09 2.48889 10.9351C2.48889 10.7802 2.5504 10.6317 2.65988 10.5222C2.76936 10.4127 2.91785 10.3511 3.07268 10.3511C3.24089 10.3449 3.40962 10.3501 3.57835 10.3501Z" fill="#FF296D"/>
<path id="Vector_3" d="M7.04822 10.3492C7.21018 10.3492 7.37267 10.3455 7.53463 10.3492C7.68679 10.3516 7.83201 10.4133 7.93939 10.5212C8.04676 10.6291 8.10783 10.7746 8.10959 10.9268C8.11136 11.0791 8.05368 11.226 7.94883 11.3363C7.84398 11.4466 7.70024 11.5117 7.54817 11.5177C7.21765 11.526 6.88678 11.526 6.55557 11.5177C6.4006 11.5169 6.25228 11.4546 6.14324 11.3444C6.0342 11.2343 5.97337 11.0853 5.97413 10.9303C5.97489 10.7753 6.03718 10.6269 6.14729 10.5178C6.25741 10.4088 6.40633 10.3479 6.5613 10.3487C6.72378 10.345 6.88574 10.3492 7.04822 10.3492Z" fill="#FF296D"/>
<path id="Vector_4" d="M10.5385 10.3496C10.7009 10.3496 10.8629 10.3444 11.0254 10.3496C11.1802 10.3491 11.3289 10.41 11.4388 10.5192C11.5487 10.6283 11.6107 10.7766 11.6112 10.9315C11.6118 11.0864 11.5508 11.2351 11.4417 11.345C11.3326 11.4549 11.1844 11.517 11.0295 11.5176C10.6926 11.5264 10.3525 11.5269 10.0172 11.5176C9.8661 11.513 9.72275 11.4498 9.6174 11.3414C9.51206 11.233 9.45297 11.0879 9.45264 10.9367C9.45303 10.7824 9.51399 10.6344 9.6224 10.5246C9.73081 10.4148 9.87799 10.3519 10.0323 10.3496C10.201 10.3444 10.3697 10.3496 10.5385 10.3496Z" fill="#FF296D"/>
<path id="Vector_5" d="M7.06521 7.71863C7.22821 7.71863 7.39122 7.71186 7.5537 7.71863C7.70166 7.72115 7.84307 7.78008 7.94906 7.88339C8.05504 7.9867 8.1176 8.12658 8.12395 8.27448C8.12815 8.34961 8.11743 8.42483 8.0924 8.49579C8.06737 8.56675 8.02853 8.63205 7.97812 8.6879C7.9277 8.74376 7.86673 8.78906 7.7987 8.82119C7.73068 8.85333 7.65697 8.87166 7.58182 8.87512C7.22448 8.89439 6.86636 8.89439 6.50903 8.87512C6.36074 8.86584 6.22201 8.79879 6.1226 8.68834C6.02319 8.57789 5.97103 8.43286 5.97732 8.28437C5.98108 8.13632 6.04124 7.9953 6.1455 7.89014C6.24975 7.78498 6.39022 7.72363 6.53819 7.71863C6.71369 7.70873 6.88971 7.71863 7.06521 7.71863Z" fill="#FF296D"/>
<path id="Vector_6" d="M10.5264 7.71865C10.6957 7.71865 10.8649 7.71187 11.0337 7.71865C11.1817 7.72229 11.3228 7.78243 11.4279 7.88674C11.5331 7.99105 11.5943 8.13164 11.5992 8.2797C11.6069 8.42814 11.556 8.57366 11.4574 8.68487C11.3588 8.79607 11.2204 8.86403 11.0722 8.87409C10.7079 8.89446 10.3428 8.89446 9.97857 8.87409C9.83036 8.8639 9.69209 8.7959 9.59351 8.68473C9.49494 8.57356 9.44396 8.4281 9.45155 8.2797C9.45669 8.13146 9.51827 7.99079 9.6237 7.88649C9.72913 7.78219 9.87043 7.72214 10.0187 7.71865C10.1874 7.70927 10.3572 7.71865 10.5264 7.71865Z" fill="#FF296D"/>
<path id="Vector_7" d="M13.9988 8.87706C13.8165 8.87706 13.6342 8.89113 13.4525 8.87394C13.3067 8.8604 13.1714 8.79206 13.074 8.68268C12.9766 8.57331 12.9242 8.43105 12.9275 8.28459C12.9308 8.13814 12.9895 7.99838 13.0918 7.89352C13.194 7.78865 13.3322 7.72648 13.4785 7.71953C13.8295 7.70703 14.1821 7.70651 14.5326 7.71953C14.6769 7.72803 14.8128 7.79038 14.9134 7.89426C15.014 7.99814 15.072 8.13599 15.076 8.28057C15.0799 8.42516 15.0295 8.56595 14.9346 8.67514C14.8398 8.78433 14.7075 8.85397 14.5638 8.87029C14.3757 8.88115 14.1871 8.88237 13.9988 8.87394V8.87706Z" fill="#FF296D"/>
<path id="Vector_8" d="M3.574 12.9907C3.74325 12.9907 3.9125 12.9839 4.08175 12.9907C4.23001 12.9943 4.37122 13.0547 4.47633 13.1594C4.58143 13.264 4.64244 13.405 4.64679 13.5533C4.65451 13.7017 4.60356 13.8471 4.50495 13.9583C4.40633 14.0694 4.26798 14.1372 4.11977 14.1472C3.75552 14.1678 3.39039 14.1678 3.02614 14.1472C2.87808 14.137 2.73993 14.069 2.64146 13.958C2.54298 13.8469 2.49206 13.7016 2.49964 13.5533C2.50476 13.4053 2.56613 13.2649 2.67123 13.1606C2.77633 13.0564 2.91724 12.9961 3.0652 12.9922C3.23497 12.9839 3.40475 12.9907 3.574 12.9907Z" fill="#FF296D"/>
<path id="Vector_9" d="M7.06218 12.9902C7.22466 12.9902 7.38766 12.984 7.55014 12.9902C7.70136 12.9925 7.84574 13.0536 7.95268 13.1606C8.05962 13.2676 8.12071 13.412 8.12299 13.5633C8.12727 13.7119 8.07318 13.8562 7.97232 13.9654C7.87147 14.0745 7.73188 14.1398 7.58347 14.1473C7.22613 14.1663 6.86802 14.1663 6.51068 14.1473C6.36236 14.1386 6.22331 14.0722 6.12334 13.9623C6.02337 13.8524 5.97042 13.7076 5.97584 13.5591C5.97923 13.4076 6.04149 13.2634 6.14942 13.1571C6.25734 13.0508 6.40244 12.9908 6.5539 12.9897C6.72315 12.984 6.89293 12.9902 7.06218 12.9902Z" fill="#FF296D"/>
<path id="Vector_10" d="M15.7015 14.53H16.9919C17.3877 14.53 17.6544 14.7686 17.6533 15.1166C17.6523 15.4646 17.3867 15.7011 16.9904 15.7016C16.3852 15.7016 15.7801 15.7016 15.175 15.7016C14.7703 15.7016 14.5313 15.4625 14.5302 15.0593C14.5282 14.4474 14.5282 13.8355 14.5302 13.2235C14.5302 12.8432 14.7708 12.5791 15.112 12.577C15.4531 12.575 15.6989 12.8375 15.7009 13.2168C15.703 13.6455 15.7015 14.0742 15.7015 14.53Z" fill="#FF296D"/>
</g>
</g>
</svg>
