<svg width="20" height="20" viewBox="0 0 20 20" fill="none" xmlns="http://www.w3.org/2000/svg">
<g id="Character">
<path id="Vector" d="M0 19.9997C0.0806417 19.5373 0.156675 19.0749 0.243077 18.6134C0.411273 17.7148 0.588684 16.8182 0.756304 15.9195C1.03452 14.4223 1.97572 13.4112 3.62081 12.9175C4.54243 12.6417 5.46405 12.3694 6.38855 12.1107C6.61895 12.0476 6.73416 11.9644 6.68692 11.7501C6.68445 11.7062 6.68773 11.6622 6.69672 11.619H7.40579C7.35855 12.4828 7.78307 13.268 7.95415 14.1495C8.08778 14.0113 8.18455 13.9095 8.28536 13.8066C8.64248 13.4319 8.99558 13.0542 9.36077 12.6851C9.42934 12.6233 9.52132 12.5857 9.6194 12.5792C9.91605 12.5671 10.253 12.501 10.5001 12.5988C10.7472 12.6967 10.9033 12.9644 11.0969 13.1621C11.3987 13.4743 11.6959 13.7899 12.0363 14.147C12.2178 13.2761 12.6308 12.4934 12.5905 11.616H13.2777C13.2886 11.6326 13.3018 11.6427 13.303 11.6538C13.3387 12.0254 13.3393 12.0234 13.7586 12.148C14.7707 12.4506 15.8006 12.7113 16.789 13.0633C18.0989 13.5302 18.9064 14.4183 19.1714 15.6311C19.4807 17.0486 19.7255 18.4773 19.9974 19.9009C20.0009 19.9331 20.0009 19.9655 19.9974 19.9977L0 19.9997ZM15.8536 19.3442C15.7464 18.3916 15.6399 17.4455 15.531 16.4813L16.2637 16.4218C16.3397 17.0774 16.4129 17.7108 16.4883 18.3593L18.8955 18.095C18.888 18.0199 18.8869 17.9685 18.8776 17.918C18.7457 17.2251 18.6271 16.5297 18.4744 15.8399C18.2411 14.7778 17.5643 14.0048 16.4008 13.621C15.3732 13.2821 14.3202 13.0007 13.2782 12.6946C13.2604 12.6896 13.2368 12.6987 13.201 12.7027C12.9355 13.6321 12.6694 14.562 12.3946 15.5267L11.5594 14.6614C11.4356 14.8227 11.3163 14.9564 11.2265 15.1036C11.1706 15.19 11.1452 15.289 11.1533 15.388C11.2996 16.3487 11.4569 17.3084 11.6141 18.2685C11.6717 18.6266 11.7351 18.9841 11.7967 19.3457L15.8536 19.3442ZM3.50964 18.3578C3.58625 17.7022 3.66056 17.0673 3.73659 16.4188L4.4664 16.4838C4.35753 17.442 4.25097 18.384 4.14325 19.3376H8.19953C8.20817 19.3003 8.21566 19.2756 8.21969 19.2509C8.41899 18.0335 8.59237 16.8126 8.83257 15.6018C8.91551 15.1823 8.64997 14.9604 8.43512 14.6619L7.60739 15.5267C7.3286 14.5544 7.06076 13.6195 6.7883 12.6679C5.72959 12.9796 4.69565 13.2645 3.67784 13.5892C2.52178 13.9584 1.80868 14.6906 1.54947 15.7456C1.44694 16.1646 1.37667 16.5908 1.2966 17.0138C1.22863 17.3669 1.16412 17.7163 1.09385 18.0925L3.50964 18.3578ZM11.0681 14.1404C10.7899 13.8489 10.5381 13.5474 10.2357 13.2917C10.1499 13.2186 9.84865 13.2166 9.76398 13.2882C9.45812 13.5489 9.20237 13.8545 8.92991 14.1409C9.1488 14.4289 9.35904 14.6956 9.55604 14.9725C9.60656 15.0411 9.6304 15.1221 9.62401 15.2035C9.45985 16.2403 9.28589 17.2761 9.11654 18.3119C9.05894 18.6503 9.01113 18.9891 8.95756 19.3361H11.0312C11.0272 19.2685 11.0283 19.2161 11.0197 19.1656C10.8066 17.859 10.5894 16.5529 10.382 15.2458C10.37 15.1464 10.3942 15.0461 10.4512 14.9594C10.6395 14.6876 10.8492 14.4269 11.0681 14.1404ZM0.852498 19.3371H3.39213C3.40711 19.2287 3.42151 19.1228 3.43764 19.0012L0.970004 18.7335L0.852498 19.3371ZM16.6024 19.3371H19.1438C19.1138 19.1722 19.0798 19.0254 19.0625 18.8772C19.0499 18.7667 18.9951 18.7335 18.8736 18.7486C18.6311 18.7794 18.3875 18.8026 18.1444 18.8293L16.5609 19.0048C16.5736 19.1208 16.5874 19.2221 16.6024 19.3356V19.3371Z" fill="#FF296D"/>
<path id="Vector_2" d="M4.13977 6.08347C3.71409 5.92361 3.43818 5.67348 3.37712 5.27308C3.30052 4.76879 3.7043 4.27812 4.27743 4.21408C4.48134 4.19088 4.53145 4.12078 4.57235 3.95538C5.02798 2.10616 6.2808 0.865616 8.31643 0.228198C8.41608 0.196932 8.49499 0.114733 8.5837 0.0562361L8.54799 -0.000244141H11.4436L11.4108 0.0501845C11.4983 0.110195 11.5755 0.195923 11.6752 0.227189C13.7436 0.878223 15.0068 2.13894 15.4394 4.0285C15.4636 4.13289 15.497 4.18382 15.626 4.20147C16.1934 4.28064 16.5419 4.57464 16.6139 5.01841C16.6876 5.4758 16.4474 5.83132 15.9123 6.05775C15.8974 6.06716 15.8836 6.07798 15.8714 6.09002C15.9411 6.19996 16.0194 6.30888 16.0822 6.42386C16.5724 7.32452 15.986 8.40873 14.8766 8.63617C14.6865 8.675 14.5938 8.7466 14.531 8.90848C14.3778 9.32549 14.1195 9.70705 13.7753 10.025C13.253 10.5037 12.7218 10.9762 12.1815 11.4425C11.8491 11.731 11.4488 11.9125 10.9718 11.9181C10.3256 11.9255 9.67908 11.9255 9.03241 11.9181C8.56354 11.913 8.16839 11.74 7.83719 11.4576C7.31071 11.0061 6.79192 10.5494 6.2808 10.0875C5.89938 9.73792 5.61221 9.318 5.4404 8.85856C5.40181 8.7577 5.35976 8.68659 5.21 8.65684C3.88517 8.39461 3.32586 7.16264 4.07583 6.17424C4.09311 6.15054 4.10981 6.12835 4.13977 6.08347ZM14.0794 6.13793H5.96918C5.96918 6.77484 5.93692 7.39865 5.9784 8.02094C6.02217 8.67298 6.35511 9.23122 6.87409 9.70172C7.35564 10.1364 7.84755 10.562 8.33889 10.9882C8.44889 11.0859 8.58067 11.1628 8.72603 11.214C8.87139 11.2653 9.02724 11.2899 9.1839 11.2862C9.71902 11.2862 10.2547 11.2822 10.7904 11.2862C10.9581 11.2902 11.1248 11.2633 11.2799 11.2074C11.435 11.1515 11.5749 11.0677 11.6907 10.9614C12.1515 10.558 12.6169 10.1515 13.0777 9.74509C13.5737 9.30737 13.9262 8.78695 13.9948 8.17525C14.0702 7.50555 14.0547 6.82729 14.0794 6.13793ZM8.5261 0.86259C6.81361 1.28064 5.42485 2.82931 5.29582 4.16768H14.7194C14.4688 2.58876 12.9971 1.23021 11.4666 0.863094V3.53178H10.734V0.649781H9.26051V3.53178H8.5261V0.86259ZM9.99493 4.83485H4.66566C4.58397 4.83189 4.50215 4.83425 4.42086 4.84191C4.33087 4.85058 4.24816 4.88926 4.18991 4.94993C4.13166 5.0106 4.10236 5.08859 4.10808 5.16768C4.12421 5.33612 4.22789 5.44504 4.42777 5.46622C4.50913 5.47304 4.59088 5.47556 4.67258 5.47378C8.22542 5.47378 11.7775 5.47378 15.3288 5.47378C15.4103 5.47573 15.4919 5.47287 15.573 5.46521C15.6599 5.46053 15.7412 5.42621 15.7994 5.36964C15.8577 5.31307 15.8883 5.23875 15.8847 5.16264C15.8898 4.99118 15.7792 4.88125 15.5886 4.84544C15.5076 4.83491 15.4255 4.83169 15.3438 4.83586L9.99493 4.83485ZM5.20366 6.19643C4.71405 6.3578 4.42374 6.76072 4.47385 7.17121C4.52281 7.57212 4.84826 7.92109 5.20366 7.96294V6.19643ZM14.7885 6.205V7.97C15.2009 7.88478 15.5183 7.5111 15.5281 7.10162C15.5312 6.90275 15.4609 6.70831 15.3276 6.54722C15.1944 6.38614 15.0053 6.267 14.7885 6.20752V6.205Z" fill="#FF296D"/>
<path id="Vector_3" d="M7.0694 2.90454H7.77156V3.53187H7.0694V2.90454Z" fill="#FF296D"/>
<path id="Vector_4" d="M12.9367 2.90747V3.53178H12.2316V2.90747H12.9367Z" fill="#FF296D"/>
</g>
</svg>
