<svg width="61" height="19" viewBox="0 0 61 19" fill="none" xmlns="http://www.w3.org/2000/svg">
<path d="M44.3464 0.783042C43.3718 0.410896 41.8259 0 39.9143 0C35.0345 0 31.5982 2.50438 31.5771 6.08489C31.5366 8.72658 34.0374 10.1938 35.9079 11.0747C37.8196 11.9747 38.4695 12.5622 38.4695 13.3645C38.45 14.5967 36.9247 15.1646 35.502 15.1646C33.5291 15.1646 32.4721 14.8718 30.8656 14.1863L30.215 13.8924L29.5235 18.0211C30.6824 18.5293 32.8177 18.9802 35.0345 19C40.2194 19 43.595 16.5344 43.6349 12.7188C43.6547 10.625 42.3341 9.02071 39.4871 7.70975C37.7588 6.86819 36.7004 6.30074 36.7004 5.43968C36.7207 4.6569 37.5956 3.85513 39.5466 3.85513C41.153 3.81586 42.3333 4.18749 43.2275 4.55938L43.6744 4.75468L44.3464 0.783042Z" fill="#3362AB"/>
<path d="M26.4333 18.7259H21.4919L24.5826 0.333396H29.5237L26.4333 18.7259Z" fill="#3362AB"/>
<path fill-rule="evenodd" clip-rule="evenodd" d="M57.0135 0.333396H53.1913C52.0127 0.333396 51.1172 0.665753 50.6086 1.85943L43.2688 18.7256H48.4537C48.4537 18.7256 49.3073 16.4556 49.4907 15.9666H55.8351C55.977 16.6124 56.4247 18.7256 56.4247 18.7256H61L57.0135 0.333396ZM50.914 12.2101C51.3209 11.1535 52.8868 7.06401 52.8868 7.06401C52.8786 7.07976 52.9422 6.90985 53.0372 6.6565L53.0384 6.6534L53.0391 6.65136C53.181 6.27293 53.3915 5.71122 53.5369 5.30314L53.8823 6.88795C53.8823 6.88795 54.818 11.2905 55.0212 12.2101H50.914Z" fill="#3362AB"/>
<path d="M17.3646 0.333396L12.5253 12.8753L11.9965 10.3317L11.996 10.3301L10.2682 1.87945C9.98365 0.704762 9.10923 0.372145 8.03161 0.333396H0.0813345L0 0.705022C1.93904 1.18224 3.67334 1.8699 5.19294 2.72493L9.59724 18.7064H14.8227L22.5897 0.333396H17.3646Z" fill="#3362AB"/>
</svg>
