<svg width="68" height="29" viewBox="0 0 68 29" fill="none" xmlns="http://www.w3.org/2000/svg">
<path d="M6.62042 4.01613L0.404179 3.95959L0.404172 8.03221H10.7062L0 21.5842V25.0306H6.62042V29H10.5927V25.0306H17.3455C17.4023 24.8718 17.4222 24.4436 17.0628 24.0514C16.4669 23.3976 15.9931 22.7143 15.558 21.855C15.3594 21.4721 15.2086 21.0135 15.1518 20.9761C13.822 20.916 6.17178 20.9315 6.1759 20.8837L16.8916 7.24865V4.01613H10.5927V0H6.62042V4.01613Z" fill="#6C1CD3"/>
<path d="M35.3054 2.12056C35.2108 2.15792 35.1824 4.22201 35.1824 12.0394C35.1824 22.6027 35.173 22.4252 35.6458 23.3312C36.0714 24.1438 37.1118 24.8723 38.2751 25.1711C38.9182 25.3392 40.8098 25.3579 41.538 25.2085C42.4744 25.0124 42.6541 24.7322 42.2852 24.013C42.0488 23.5647 41.7366 22.584 41.661 22.0423C41.557 21.3979 41.4245 21.2951 40.6301 21.3138C40.2518 21.3231 39.8924 21.2951 39.8262 21.2578C39.4384 21.0149 39.4384 20.9495 39.4384 11.4884C39.4384 5.40816 39.41 2.35406 39.3438 2.23264C39.2493 2.06452 39.1263 2.05518 37.3293 2.06452C36.2795 2.06452 35.3621 2.09254 35.3054 2.12056Z" fill="#6C1CD3"/>
<path d="M43.9788 2.14861C43.8558 2.22333 43.8369 3.41882 43.8369 11.9741C43.8369 21.1924 43.8463 21.7528 44.0166 22.3972C44.3382 23.6675 45.0664 24.4427 46.4472 25.0124C46.9769 25.2272 47.2133 25.2646 48.282 25.2926C49.7102 25.3299 50.4384 25.2272 51.1667 24.8629C51.8855 24.5174 51.9044 24.2745 51.2896 23.3873C51.0437 23.0323 50.6654 22.4253 50.4573 22.0423L50.079 21.3418L49.3886 21.3325C48.5279 21.3138 48.4428 21.2765 48.282 20.8749C48.1591 20.604 48.1402 19.2124 48.1402 11.4884C48.1402 5.40819 48.1118 2.35409 48.0456 2.23267C47.951 2.06455 47.8281 2.05521 46.0311 2.05521C44.9813 2.05521 44.0544 2.10191 43.9788 2.14861Z" fill="#6C1CD3"/>
<path d="M23.4084 7.98552C23.3611 8.0042 22.9922 8.08826 22.6045 8.17232C20.1738 8.72336 18.0269 10.5633 17.119 12.8982C16.6177 14.1871 16.438 15.1865 16.4285 16.6715C16.4191 18.7543 16.8447 20.286 17.8188 21.743C18.9159 23.3775 20.5238 24.4889 22.6045 25.0493C23.3138 25.2361 23.6259 25.2641 25.2526 25.2641C26.8605 25.2641 27.1915 25.2361 27.863 25.0586C29.5276 24.601 30.9462 23.8445 32.0906 22.7704C32.8189 22.0979 32.8094 21.9111 32.0717 21.3507C31.769 21.1172 31.2205 20.6129 30.8611 20.2206C30.4071 19.7443 30.1329 19.5201 29.991 19.5201C29.8586 19.5201 29.5559 19.7069 29.2627 19.9871C28.2508 20.8931 26.974 21.3227 25.2999 21.3134C23.7678 21.304 22.6518 20.9118 21.9424 20.1085C21.583 19.7069 21.1291 18.7916 21.0345 18.278L20.9777 17.9324H26.8699C30.1139 17.9324 32.8283 17.895 32.8945 17.8483C33.2066 17.6522 33.2823 16.2979 33.0553 14.8222C32.5162 11.2918 30.3788 8.9195 27.0212 8.12562C26.4254 7.98552 25.9336 7.93882 24.8743 7.94816C24.1177 7.94816 23.4651 7.96684 23.4084 7.98552ZM25.9336 11.5907C26.624 11.7308 27.4752 12.1978 27.8724 12.6461C28.2413 13.057 28.6196 13.7949 28.7142 14.2712L28.7804 14.5701H21.0723L21.1385 14.2712C21.4222 13.0103 22.5193 11.9549 23.8813 11.6187C24.4866 11.4693 25.2999 11.4599 25.9336 11.5907Z" fill="#6C1CD3"/>
<path d="M57.7879 8.06948C54.4304 8.80732 52.1605 11.1423 51.4512 14.5886C51.0256 16.6247 51.2621 18.997 52.066 20.6969C53.1631 23.0505 55.1587 24.5729 57.8825 25.1239C58.7432 25.3014 59.0836 25.32 60.4361 25.2827C61.5805 25.2453 62.1952 25.1799 62.7249 25.0398C64.3422 24.6196 65.7608 23.8537 66.8485 22.8263C67.6807 22.0324 67.6807 21.9951 66.7823 21.2572C66.3661 20.921 65.8081 20.3886 65.5433 20.0804C64.9285 19.3799 64.7678 19.3706 64.0773 19.987C63.0464 20.9117 61.8169 21.3226 60.1051 21.3133C57.7028 21.3039 56.303 20.2859 55.8491 18.2312L55.7829 17.9888H67.7659C68.1725 17.6993 68.0212 14.6353 67.5294 13.2157C67.4348 12.9355 67.1795 12.3751 66.9714 11.9828C65.8649 9.89073 64.0963 8.59251 61.6372 8.07882C60.8522 7.9107 58.5351 7.9107 57.7879 8.06948ZM60.7387 11.5906C61.3819 11.7307 62.0439 12.0576 62.5168 12.4779C62.914 12.8421 63.5572 13.9909 63.5572 14.3458V14.57H55.8775L55.9437 14.3084C56.4355 12.3097 58.5162 11.1236 60.7387 11.5906Z" fill="#6C1CD3"/>
</svg>
